<?xml version="1.0" encoding="utf-8"?>
<!-- Generator: Adobe Illustrator 16.0.3, SVG Export Plug-In . SVG Version: 6.00 Build 0)  -->
<!DOCTYPE svg PUBLIC "-//W3C//DTD SVG 1.1//EN" "http://www.w3.org/Graphics/SVG/1.1/DTD/svg11.dtd">
<svg version="1.1" id="Layer_1" xmlns="http://www.w3.org/2000/svg" xmlns:xlink="http://www.w3.org/1999/xlink" x="0px" y="0px"
	 width="4167px" height="3125px" viewBox="0 0 4167 3125" enable-background="new 0 0 4167 3125" xml:space="preserve">
<g>
	<g>
		<linearGradient id="SVGID_1_" gradientUnits="userSpaceOnUse" x1="2318.7253" y1="2226.8672" x2="1373.9813" y2="590.5227">
			<stop  offset="0" style="stop-color:#1C00BD"/>
			<stop  offset="0.2965" style="stop-color:#5C00CE"/>
			<stop  offset="0.9809" style="stop-color:#FA00F8"/>
			<stop  offset="1" style="stop-color:#FF00F9"/>
		</linearGradient>
		<path fill="url(#SVGID_1_)" d="M1164.099,714.009c10.043-12.3,27.431-13.909,42.268-14.042
			c63.488,8.264,126.53,19.621,189.745,29.938c313.016,52.732,625.612,107.674,938.242,162.467
			c105.494,18.475,210.953,37.123,316.431,55.657c7.543,1.757,15.617,1.874,22.685,5.378c11.711,4.237,21.657,15.617,22.338,28.298
			c-0.134,4.118-0.042,8.296-0.017,12.441c-1.302,18.589-4.517,37.017-6.714,55.514c-8.984,72.682-17.903,145.379-27.353,217.984
			c-17.819,142.376-35.405,284.78-53.309,427.149c-15.394,123.105-30.693,246.22-46.24,369.312
			c-0.681,12.018-6.351,23.747-15.864,31.245c-5.712,3.74-12.028,6.672-18.834,7.643c-26.867,1.831-53.581,5.561-80.354,8.479
			c-158.406,19.138-316.664,39.427-474.907,59.684c-181.819,23.316-363.617,46.772-545.372,70.459
			c-49.19,6.301-98.349,12.864-147.542,19.064c-17.007,3.539-38.316,1.327-48.767-14.322c-4.625-7.642-4.982-16.876-5.096-25.545
			c-0.084-2.742,0.223-5.18-0.515-7.707c-6.514-120.613-11.654-241.3-17.72-361.952c-0.906-32.342-3.633-64.626-4.145-96.983
			c-0.007-3.15-0.205-6.259-0.582-9.315c-5.021-97.282-9.157-194.554-13.874-291.826c-2.015-46.05-4.492-92.09-6.256-138.132
			c-0.067-2.918,0.265-5.737-0.522-8.528c-5.148-109.886-10.278-219.748-15.243-329.637c-4.012-78.53-6.895-157.171-11.256-235.645
			C1155.013,731.531,1157.807,721.426,1164.099,714.009z M2572.575,1402.38c-151.304,18.574-302.681,37.006-453.935,55.612
			c-5.479,2.23-3.91,9.442-5.18,14.092c-3.007,22.935-6.175,45.852-9.125,68.791c-23.62,176.923-47.077,353.872-70.625,530.805
			c-0.978,9.298-3.408,18.514-2.537,27.931c1.99,2.279,5.405,3.198,8.246,2.054c150.996-19.633,302.028-39.021,453.034-58.541
			c2.619-0.604,3.896-3.091,4.267-5.543c6.259-45.313,12.857-90.575,19.205-135.863c1.923-4.683-3.242-9.15-7.523-7.692
			c-97.779,12.557-195.574,24.949-293.351,37.464c-4.029-0.042-7.286-4.992-5.338-8.771c2.868-20.836,5.603-41.689,8.506-62.51
			c1.648-9.308,1.624-18.923,4.391-27.988c5.138-3.714,11.912-2.769,17.854-3.93c84.831-10.716,169.637-21.534,254.476-32.151
			c1.742-0.537,3.002-1.905,4.212-3.207c6.291-43.008,12.29-86.059,18.366-129.092c1.468-4.542-2.893-8.843-7.392-7.449
			c-85.47,10.632-170.904,21.492-256.384,31.96c-4.326,1.401-12.001,0.604-11.323-5.44c3.549-28.03,7.784-55.979,11.249-84.009
			c0.547-2.552,0.812-6.821,3.913-7.709c4.816-1.913,10.162-1.507,15.208-2.436c92.365-11.479,184.731-22.984,277.104-34.331
			c3.415-0.72,7.875,0.049,10.602-2.668c2.436-2.312,1.846-6.026,2.52-8.994c6.224-44.285,12.79-88.526,18.856-132.829
			C2583.618,1404.618,2577.599,1399.544,2572.575,1402.38z M2003.157,1472.018c-54.039,6.806-108.169,13.196-162.178,19.957
			c-3.163,1.121-3.811,5.141-5.784,7.501c-54.039,84.658-108.006,169.407-161.997,254.063c-1.881,1.633-5.791,2.71-7.491,0.465
			c-3.339-3.374-4.502-8.281-6.62-12.382c-26.35-56.578-52.658-113.171-78.933-169.781c-7.167-14.488-13.112-29.58-20.843-43.761
			c-3.574-1.898-7.717-0.755-11.471-0.257c-52.955,6.464-105.917,12.938-158.864,19.46c-4.608,1.195-4.821,6.88-4.972,10.694
			c-2.17,19.277-4.625,38.514-6.821,57.793c-22.687,191.436-45.379,382.889-68.007,574.333c0.673,2.579,2.995,4.908,5.752,5.006
			c49.948-6.358,99.861-12.963,149.814-19.244c3.366-2.297,4.079-6.499,4.036-10.296c13.377-109.24,26.523-218.506,39.932-327.736
			c1.054-5.116,0.059-10.857,2.925-15.441c3.183-2.43,8.108-1.725,9.657,2.262c9.117,18.655,19.057,36.875,28.214,55.506
			c6.962,13.493,13.203,27.384,20.739,40.58c8.776,17.72,17.678,35.374,26.496,53.079c11.256,20.289,20.621,41.59,31.688,61.988
			c1.458,1.881,1.341,5.571,5.395,3.341c18.24-28.083,36.965-55.855,55.754-83.564c37.098-55.464,73.85-111.164,111.171-166.472
			c2.638-5.338,12.914-2.552,10.652,4.029c-14.24,111.52-28.654,223.023-42.662,334.575c-1.151,2.812,0.084,5.762,2.24,7.585
			c10.028,0.587,19.925-2.007,29.904-2.91c40.439-5.155,80.861-10.526,121.318-15.574c2.319-0.562,5.202-1.285,5.808-3.978
			c6.051-46.24,12.12-92.491,18.168-138.731c21.492-164.672,43.258-329.313,64.567-494.01
			C2012.755,1475.532,2007.924,1469.971,2003.157,1472.018z"/>
	</g>
</g>
<g>
	<path fill="#9E2526" d="M2972.53,867.5h0.96c0,3.75,0,11.24-0.01,14.99l-0.97,0.02C2972.48,877.51,2972.37,872.47,2972.53,867.5z"
		/>
</g>
<g>
	<path fill="#5A1516" d="M1181.826,1305.368c0.787,2.792,0.455,5.61,0.522,8.528
		C1179.878,1313.166,1181.982,1307.739,1181.826,1305.368z"/>
</g>
<g>
	<path fill="#FFFFFF" d="M2572.575,1401.38c5.024-2.836,11.043,2.237,9.293,7.558c-6.066,44.303-12.632,88.543-18.856,132.829
		c-0.673,2.967-0.084,6.682-2.52,8.994c-2.727,2.717-7.187,1.948-10.602,2.668c-92.372,11.347-184.739,22.853-277.104,34.331
		c-5.046,0.928-10.392,0.522-15.208,2.436c-3.101,0.888-3.366,5.157-3.913,7.709c-3.465,28.03-7.7,55.979-11.249,84.009
		c-0.678,6.044,6.997,6.841,11.323,5.44c85.479-10.469,170.914-21.329,256.384-31.96c4.499-1.394,8.86,2.908,7.392,7.449
		c-6.076,43.033-12.075,86.083-18.366,129.092c-1.21,1.302-2.47,2.67-4.212,3.207c-84.838,10.617-169.645,21.435-254.476,32.151
		c-5.942,1.161-12.716,0.215-17.854,3.93c-2.767,9.065-2.742,18.681-4.391,27.988c-2.903,20.821-5.638,41.674-8.506,62.51
		c-1.948,3.779,1.309,8.729,5.338,8.771c97.777-12.515,195.572-24.907,293.351-37.464c4.282-1.458,9.447,3.009,7.523,7.692
		c-6.348,45.288-12.946,90.55-19.205,135.863c-0.372,2.453-1.648,4.939-4.267,5.543c-151.006,19.52-302.038,38.907-453.034,58.541
		c-2.841,1.144-6.256,0.225-8.246-2.054c-0.871-9.417,1.559-18.633,2.537-27.931c23.548-176.933,47.005-353.881,70.625-530.805
		c2.95-22.939,6.118-45.856,9.125-68.791c1.27-4.65-0.3-11.862,5.18-14.092C2269.894,1438.387,2421.271,1419.954,2572.575,1401.38z"
		/>
	<path fill="#FFFFFF" d="M2003.157,1471.018c4.767-2.047,9.598,3.514,7.585,8.081c-21.309,164.697-43.075,329.338-64.567,494.01
		c-6.049,46.24-12.117,92.491-18.168,138.731c-0.606,2.693-3.49,3.416-5.808,3.978c-40.457,5.048-80.879,10.419-121.318,15.574
		c-9.979,0.903-19.876,3.497-29.904,2.91c-2.156-1.824-3.391-4.774-2.24-7.585c14.008-111.552,28.421-223.055,42.662-334.575
		c2.262-6.581-8.014-9.367-10.652-4.029c-37.321,55.308-74.073,111.007-111.171,166.472c-18.789,27.708-37.514,55.481-55.754,83.564
		c-4.054,2.23-3.938-1.46-5.395-3.341c-11.068-20.397-20.432-41.699-31.688-61.988c-8.818-17.705-17.72-35.358-26.496-53.079
		c-7.536-13.196-13.778-27.087-20.739-40.58c-9.157-18.631-19.096-36.851-28.214-55.506c-1.549-3.987-6.474-4.692-9.657-2.262
		c-2.866,4.583-1.871,10.325-2.925,15.441c-13.409,109.23-26.555,218.496-39.932,327.736c0.042,3.797-0.671,7.999-4.036,10.296
		c-49.953,6.281-99.866,12.886-149.814,19.244c-2.757-0.099-5.078-2.428-5.752-5.006c22.628-191.443,45.32-382.896,68.007-574.333
		c2.195-19.279,4.65-38.516,6.821-57.793c0.151-3.814,0.364-9.499,4.972-10.694c52.947-6.521,105.909-12.996,158.864-19.46
		c3.754-0.498,7.897-1.641,11.471,0.257c7.731,14.181,13.676,29.273,20.843,43.761c26.276,56.61,52.583,113.203,78.933,169.781
		c2.119,4.101,3.282,9.008,6.62,12.382c1.7,2.245,5.611,1.168,7.491-0.465c53.992-84.655,107.958-169.405,161.997-254.063
		c1.972-2.361,2.621-6.38,5.784-7.501C1894.988,1484.214,1949.119,1477.824,2003.157,1471.018z"/>
</g>
<g>
	<path fill="#982425" d="M1202.479,1743.854c0.376,3.057,0.574,6.165,0.582,9.315l-0.839,0.015
		C1202.291,1750.849,1202.414,1746.184,1202.479,1743.854z"/>
</g>
<g>
	<path d="M2336.344,2184.529c2.143,0.512,6.133-1.693,7.922,0.653c0.72,2.594-0.812,4.833-1.807,7.039
		c-6.481,15.008-14.901,29.125-21.326,44.159c-6.989,14.015-14.067,28.023-20.821,42.122c-1.143,3.43-1.126,7.551-0.225,11.179
		c1.03,12.631,1.668,25.313,2.024,38.011c0,1.383,0.01,4.146,0.01,5.529c-0.316,2.717-3.972,1.458-5.835,1.889
		c-10.147,1.128-20.316,3.118-30.51,3.125c-2.787-5.073-1.366-11.718-1.866-17.314c-0.827-12.078-1.101-24.219-1.863-36.237
		c-17.166-26.904-35.168-53.269-52.507-80.04c-0.995-1.51-2.106-4.294-0.057-5.331c13.127-1.175,26.231-3.672,39.375-4.217
		c5.397,6.415,8.929,14.245,13.626,21.217c4.883,8.081,9.823,16.146,14.894,24.127c4.984,1.408,5.546-5.239,7.321-8.189
		c6.803-14.521,13.02-29.407,20.081-43.739C2315.065,2186.551,2325.855,2186.012,2336.344,2184.529z"/>
</g>
<g>
	<path d="M2152.075,2202.415c3.771-0.091,7.717-0.141,11.572,0.032l0.04,0.787c-3.955-0.082-7.766,0-11.627-0.015L2152.075,2202.415
		z"/>
</g>
<g>
	<path d="M2118.957,2213.238c10.144-5.635,21.383-9.739,33.104-10.018c3.861,0.015,7.672-0.067,11.627,0.015
		c11.746,0.456,23.051,5.306,32.282,12.449c3.564,2.769,7.435,5.994,8.172,10.761c-0.495,2.004-1.267,3.945-2.534,5.618
		c-5.158,5.063-10.246,10.204-15.342,15.317c-1.012,1.062-2.294,1.849-3.68,2.297c-1.386,0.007-4.153,0.015-5.539,0.025
		c-5.932-3.408-11.726-8.553-18.953-9.432c-3.207-0.571-6.523-0.995-9.607-0.059c-11.255,1.742-20.779,10.055-25.422,20.242
		c-6.38,15.134-5.707,34.17,4.9,47.275c9.457,12.011,28.006,12.741,40.147,4.418c5.346-3.366,8.479-9.523,14.042-12.541
		c6.38-1.839,10.914,4.17,16.136,6.598c3.589,2.396,7.992,4.111,10.137,8.14c-0.787,1.998,1.005,5.462-0.871,7.385
		c-9.929,15.025-25.038,26.961-42.815,30.98c-4.974,1.26-10.088,1.65-15.151,2.205c-2.911-0.148-5.504,0.024-8.306,0.017
		c-16.037-0.398-31.438-8.338-42.305-19.883c-10.949-11.937-17.255-27.867-18.21-43.954c-0.015-5.306,0-10.528,0.02-15.765
		C2082.586,2250.106,2097.165,2226.137,2118.957,2213.238z"/>
	<path d="M2022.994,2220.873c10.733-0.886,21.375-2.628,32.116-3.531c1.443-0.406,2.247,0.945,3.118,1.856
		c1.5,36.893,3.049,73.744,4.591,110.617c0.968,6.351,0.448,12.847,0.547,19.296c-0.035,3.314-0.092,6.804,0.54,10.194
		c0.668,1.344-0.762,2.032-1.584,2.836c-8.214,0.968-16.393,2.237-24.635,2.816c-2.47,0.017-5.403,1.849-7.343-0.215
		c-17.638-21.309-35.656-42.288-53.135-63.72c-1.077-2.139-4.103-4.301-5.992-1.849c-1.52,2.047-0.307,5.296-0.705,7.766
		c-0.398,1.856-0.25,3.754,0.455,5.685c0.389,3.242,0.522,6.566,0.408,9.964c-0.044,3.316-0.077,6.789,0.52,10.187
		c0.356,3.415,0.282,6.994,0.307,10.533c0.124,3.574-0.455,7.427,0.515,11.026c0.29,3.165,0.396,6.397,0.339,9.696
		c-0.181,2.287,0,4.972-0.042,7.427l-0.04,0.745c-9.583,2.212-19.571,1.982-29.233,3.804c-1.824-0.015-7.702,1.997-7.145-2.015
		c-0.24-2.495,0.05-4.64-0.532-6.885c-0.564-3.563-0.307-7.063-0.314-10.535c-0.255-3.737,0.433-7.459-0.512-11.023
		c-0.589-3.549-0.299-7.054-0.317-10.526c-0.257-3.739,0.431-7.462-0.515-11.025c-0.619-5.18-0.307-10.353-0.307-15.498
		c-0.272-3.74,0.441-7.469-0.53-11.023c-0.421-1.608-0.396-3.267-0.371-4.858c0.007-1.394,0.032-4.167,0.04-5.561
		c-0.307-3.771,0.49-7.534-0.495-11.132c-0.431-1.567-0.342-3.175-0.324-4.725c-0.25-3.737,0.448-7.459-0.497-11.023
		c-0.579-3.547-0.297-7.054-0.332-10.526c-0.035-3.697-0.017-7.278-0.017-10.875c-0.007-1.393-0.017-4.17-0.025-5.561
		c0.819-3.292,6.167-1.443,8.338-2.628c8.845-0.247,17.512-2.759,26.367-2.371c17.403,20.729,34.678,41.583,52.126,62.287
		c1.881,3.183,7.964,0.837,5.247-3.556c-0.532-16.312-1.658-32.589-1.668-48.901c-0.272-3.729,0.441-7.467-0.53-11.023
		C2020.365,2224.437,2020.788,2222.14,2022.994,2220.873z"/>
	<path d="M1868.614,2238.949c13.27-1.26,26.474-3.613,39.786-4.245c4.252-0.255,1.995,5.529,2.47,8.316
		c0.114,3.571-0.45,7.417,0.512,11.023c0.082,1.383,0.25,4.153,0.332,5.543c-0.049,2.156-0.057,4.376-0.007,6.647
		c0.901,3.208-4.965,1.542-5.811,2.428c-19.294,2.445-38.64,4.559-57.951,6.831c-2.445,0.448-5.455-0.215-6.88,2.121
		c-1.698,1.732-0.547,4.915-0.124,7.088c0.089,1.425,0.265,4.267,0.356,5.692c-0.748,2.04-0.604,3.93,0.421,5.678
		c1.396,2.512,4.484,1.569,6.996,1.601c17.166-2.47,34.455-4.044,51.67-6.234c0.587-0.752,5.719-1.101,5.472,1.336
		c-0.069,2.386-0.102,5.205,0.554,7.675c0.082,1.393,0.24,4.167,0.314,5.554c0.181,3.571-0.507,7.442,0.53,11.03
		c0.78,2.223,0.215,5.536-2.438,6.083c-18.945,1.693-37.801,4.237-56.699,6.375c-4.816-0.921-6.249,2.445-5.163,6.489
		c-0.01,1.393-0.017,4.167-0.025,5.561c-0.292,3.225-0.084,6.375,0.629,9.441c1.26,2.485,4.41,1.292,6.813,1.383
		c19.653-2.801,39.444-4.427,59.122-7.053c1.574-0.48,7.043-1.394,6.341,2.121c0.173,3.581-0.431,7.427,0.52,11.04
		c0.084,1.384,0.243,4.161,0.317,5.546c0.183,3.571-0.505,7.449,0.539,11.048c0.587,1.524-0.25,3.747-1.916,4.178
		c-34.854,4.061-69.831,8.014-104.724,12.117c-1.119,0.257-2.537-0.438-2.403-1.673c-0.272-2.48-0.017-4.601-0.572-6.838
		c-0.101-1.425-0.282-4.269-0.374-5.694c0.01-1.418,0.017-4.262,0.017-5.677c0.007-1.443,0.032-4.336,0.042-5.776
		c0.272-2.139,0.139-4.071-0.416-5.811c-0.44-2.237-0.589-4.45-0.44-6.647c-0.032-3.663,0.069-7.212,0.044-10.776
		c-0.193-2.484,0.082-4.623-0.532-6.863c-0.092-1.425-0.282-4.267-0.374-5.694c0.01-1.416,0.017-4.259,0.017-5.678
		c0.007-1.44,0.032-4.333,0.042-5.776c0.282-2.138,0.139-4.068-0.416-5.811c-0.114-1.482-0.356-4.458-0.47-5.942
		c0.007-1.416,0.015-4.259,0.015-5.677c0.01-1.443,0.035-4.333,0.042-5.776c0.282-2.138,0.141-4.069-0.413-5.811
		c-0.119-1.482-0.356-4.457-0.475-5.942c0.01-1.418,0.017-4.259,0.017-5.677c0.007-1.443,0.032-4.336,0.042-5.776
		c0.272-2.131,0.134-4.071-0.416-5.811c-0.431-2.237-0.579-4.45-0.438-6.647c-0.025-3.935-0.017-7.724,0.032-11.57
		c0.366-2.643,3.92-1.633,6.068-2.064C1828.986,2243.426,1848.815,2241.32,1868.614,2238.949z"/>
	<path d="M1659.408,2301.593c10.518-27.063,37.363-47.599,66.638-48.643c5.237,0.04,10.469-0.035,15.755,0.007
		c12.666,0.124,24.65,6.118,34.804,13.337c1.052,4.083-2.537,6.655-4.135,9.88c-4.682,7.127-9.39,14.263-14.656,20.984
		c-0.688,0.945-2.22,0.614-2.982-0.032c-6.937-4.898-15.159-8.719-23.806-8.563c-13.765-0.928-27.476,7.004-33.923,19.146
		c-7.65,14.05-8.021,32.277,0.092,46.208c4.573,8.115,13.379,13.369,22.487,14.753c10.652,1.559,21.665-1.871,30.285-8.138
		c0.067-2.18,0.106-4.336,0.141-6.457c0.215-3.274-0.015-6.383-0.671-9.315c-1.126-1.859-2.844-2.314-5.165-1.369
		c-5.71,0.861-11.488,1.052-17.156,1.94c-1.443,0.48-4.168-0.01-3.539-2.025c-0.292-3.737,0.391-7.449-0.522-11.023
		c-0.307-2.17-0.423-4.301-0.339-6.38c-0.092-2.911,0.025-5.472,0.032-8.264c0.257-2.314,3.274-2.064,5.229-2.138
		c17.893-1.809,35.757-3.93,53.618-6.16c1.507-0.463,2.784,0.953,2.477,2.455c-0.032,3.314-0.04,6.662-0.025,10.07
		c-0.413,1.856-0.265,3.754,0.431,5.677c0.119,1.482,0.356,4.467,0.475,5.95c-0.01,1.393-0.025,4.17-0.035,5.554
		c-0.059,2.222-0.067,4.501-0.042,6.848c-0.413,1.856-0.275,3.752,0.433,5.685c0.114,1.482,0.354,4.467,0.47,5.952
		c-0.007,1.391-0.025,4.168-0.025,5.561c-0.084,3.554-0.032,7.244-0.025,10.907c-0.332,3.091-3.93,4.534-5.776,6.638
		c-14.661,13.005-33.436,21.749-53.071,23.185c-5.014-0.049-9.989-0.042-14.943-0.01c-22.793-1.225-43.879-16.602-52.665-37.579
		C1650.838,2345.861,1650.58,2321.899,1659.408,2301.593z"/>
	<g>
		<path d="M1585.425,2270.826c2.173-0.089,6.499-0.265,8.672-0.354c19.898,44.78,39.816,89.57,59.501,134.452
			c3.094,6.199-5.163,4.551-7.949,5.521c-9.944,0.53-19.715,2.651-29.654,3.198c-5.388-7.335-6.482-17.314-11.944-24.64
			c-16.75,1.532-33.485,3.97-50.227,5.826c-3.928,7.939-6.242,16.785-8.704,25.345c-2.42,3.68-7.459,2.314-11.08,3.083
			c-8.645,0.448-17.116,2.527-25.761,2.777c-1.26-0.953-2.411-2.254-1.789-3.928c16.351-46.423,32.116-93.062,48.527-139.468
			c1.26-2.918,1.176-6.658,3.814-8.761C1567.69,2272.875,1576.565,2271.929,1585.425,2270.826z M1576.193,2325.191
			c-0.564,0.53-1.069,1.126-1.517,1.789c-3.116,9.199-6.091,18.458-8.959,27.724c-0.896,1.527-2.769,6.368,0.406,6.823
			c6.987-0.44,13.948-1.633,20.96-2.099c3.175,1.144,5.752-1.599,4.42-4.277c-4.039-10.021-8.123-20.031-12.374-29.953
			C1578.134,2324.983,1577.154,2324.983,1576.193,2325.191z"/>
	</g>
</g>
<g>
	<path fill="#601717" d="M1224.926,2212.104c0.738,2.527,0.431,4.964,0.515,7.707
		C1222.664,2219.571,1225.166,2214.159,1224.926,2212.104z"/>
</g>
<g>
	<path d="M2021.427,2227.023c0.97,3.556,0.257,7.293,0.53,11.023h-0.827C2021.11,2234.292,2020.764,2230.653,2021.427,2227.023z"/>
	<path d="M1915.834,2347.435l0.827,0.024c-0.139,3.574,0.374,7.378-0.307,11.016
		C1915.404,2354.862,1916.007,2351.016,1915.834,2347.435z"/>
</g>
<g>
	<path d="M1931.06,2238.801c-0.589-1.559-1.086-4.759,0.488-5.586c0.007,1.391,0.017,4.168,0.025,5.561L1931.06,2238.801z"/>
	<path d="M1804.381,2289.441c0.554,1.742,0.695,3.673,0.413,5.811h-0.398C1803.369,2293.545,1803.493,2291.142,1804.381,2289.441z"
		/>
	<path d="M1805.208,2312.648c0.554,1.742,0.698,3.672,0.416,5.811h-0.398C1804.198,2316.751,1804.322,2314.349,1805.208,2312.648z"
		/>
</g>
<g>
	<path d="M1931.06,2238.801l0.512-0.025c0,3.596-0.017,7.177,0.017,10.875h-0.812
		C1930.852,2245.96,1930.297,2242.347,1931.06,2238.801z"/>
	<path d="M1934.406,2323.996c0.945,3.563,0.257,7.286,0.515,11.025h-0.827C1934.094,2331.264,1933.718,2327.626,1934.406,2323.996z"
		/>
</g>
<g>
	<path d="M2148.486,2240.209c3.084-0.936,6.4-0.512,9.607,0.059C2154.792,2240.357,2151.687,2240.848,2148.486,2240.209z"/>
</g>
<g>
	<path d="M1910.87,2243.021h0.827c-0.149,3.579,0.366,7.385-0.314,11.023C1910.419,2250.438,1910.984,2246.592,1910.87,2243.021z"/>
	<path d="M2177.046,2249.7c1.386-0.01,4.153-0.018,5.539-0.025C2181.937,2251.183,2177.71,2251.158,2177.046,2249.7z"/>
	<path d="M1972.202,2343.307h0.829c-0.151,3.574,0.356,7.385-0.314,11.026C1971.746,2350.734,1972.326,2346.88,1972.202,2343.307z"
		/>
</g>
<g>
	<path d="M1802.349,2248l0.794,0.017c-0.05,3.846-0.057,7.635-0.032,11.57l-0.804,0.01
		C1802.233,2255.652,1802.166,2251.863,1802.349,2248z"/>
	<path d="M1935.237,2345.547c0.945,3.563,0.257,7.286,0.512,11.023h-0.829C1934.92,2352.815,1934.557,2349.177,1935.237,2345.547z"
		/>
</g>
<g>
	<path d="M1726.047,2252.145c5.205-0.049,10.476-0.158,15.723,0.032l0.032,0.78c-5.286-0.042-10.518,0.032-15.755-0.007V2252.145z"
		/>
</g>
<g>
	<path d="M1911.714,2259.587c1.814,0.748,0.423,4.608,0.78,6.616l-0.787,0.032
		C1911.657,2263.963,1911.664,2261.743,1911.714,2259.587z"/>
</g>
<g>
	<path d="M1931.921,2260.176c0.945,3.563,0.247,7.286,0.497,11.023h-0.819C1931.604,2267.445,1931.243,2263.807,1931.921,2260.176z"
		/>
	<path d="M1916.671,2364.021l0.827,0.007c-0.131,3.581,0.332,7.393-0.287,11.041
		C1916.166,2371.471,1916.854,2367.593,1916.671,2364.021z"/>
</g>
<g>
	<path d="M1803.55,2266.234c0.549,1.74,0.688,3.68,0.416,5.811h-0.399C1802.54,2270.338,1802.654,2267.935,1803.55,2266.234z"/>
	<path d="M1805.938,2335.607c0.614,2.24,0.339,4.378,0.532,6.863l-0.807,0.018
		C1805.507,2340.176,1805.515,2337.855,1805.938,2335.607z"/>
	<path d="M1806.866,2359.894c0.554,1.74,0.688,3.672,0.416,5.811h-0.401C1805.856,2363.997,1805.97,2361.591,1806.866,2359.894z"/>
</g>
<g>
	<path d="M1803.567,2272.045h0.399c-0.01,1.44-0.035,4.333-0.042,5.776h-0.364
		C1802.698,2276.082,1802.673,2273.736,1803.567,2272.045z"/>
	<path d="M1806.881,2365.705h0.401c-0.01,1.44-0.035,4.333-0.042,5.776h-0.364
		C1806.012,2369.731,1805.987,2367.395,1806.881,2365.705z"/>
</g>
<g>
	<path d="M2080,2275.369l0.79-0.042c-0.02,5.237-0.035,10.459-0.02,15.765h-0.794
		C2079.925,2285.796,2079.809,2280.599,2080,2275.369z"/>
</g>
<g>
	<path d="M1932.743,2275.924c0.985,3.598,0.188,7.36,0.495,11.132l-0.515-0.025
		C1932.178,2283.309,1932.186,2279.554,1932.743,2275.924z"/>
</g>
<g>
	<path d="M1803.559,2277.822h0.364c0,1.418-0.007,4.259-0.017,5.677C1802.268,2282.638,1802.812,2279.332,1803.559,2277.822z"/>
	<path d="M1842.954,2335.981c1.539,0.836,1.027,4.019,0.49,5.585l-0.515-0.024
		C1842.937,2340.149,1842.944,2337.375,1842.954,2335.981z"/>
	<path d="M1806.876,2371.481h0.364c0,1.416-0.008,4.259-0.017,5.677C1805.581,2376.297,1806.128,2372.988,1806.876,2371.481z"/>
</g>
<g>
	<path d="M1840.94,2284.702c-0.423-2.173-1.574-5.356,0.124-7.088C1841.328,2279.953,1841.37,2282.349,1840.94,2284.702z"/>
</g>
<g>
	<path d="M2300.087,2289.682c-0.901-3.628-0.918-7.749,0.225-11.179C2300.213,2282.141,2300.77,2285.979,2300.087,2289.682z"/>
	<path d="M2063.366,2349.11h0.837c0.141,3.374,0.042,6.771-0.297,10.194C2063.274,2355.914,2063.331,2352.424,2063.366,2349.11z"/>
	<path d="M1785.755,2363.093l0.505,0.032c0.45,3.48,0.317,7.194,0.267,10.825l-0.797,0.049
		C1785.723,2370.337,1785.671,2366.647,1785.755,2363.093z"/>
</g>
<g>
	<path d="M1932.723,2287.031l0.515,0.025c-0.007,1.394-0.032,4.167-0.04,5.561
		C1931.639,2291.738,1932.129,2288.548,1932.723,2287.031z"/>
	<path d="M1804.389,2301.029h0.364c0,1.418-0.007,4.262-0.015,5.677C1803.094,2305.845,1803.644,2302.539,1804.389,2301.029z"/>
	<path d="M1784.953,2333.494c1.539,0.839,1.035,4.029,0.48,5.596l-0.515-0.042
		C1784.929,2337.664,1784.943,2334.887,1784.953,2333.494z"/>
	<path d="M1785.78,2357.532c1.542,0.837,1.037,4.027,0.48,5.593l-0.505-0.032C1785.755,2361.7,1785.773,2358.923,1785.78,2357.532z"
		/>
</g>
<g>
	<path d="M1841.296,2290.394c1.633,0.839,0.995,4.096,0.421,5.678C1840.692,2294.324,1840.549,2292.434,1841.296,2290.394z"/>
	<path d="M1805.218,2324.235h0.364c0,1.418-0.007,4.262-0.017,5.678C1803.923,2329.052,1804.47,2325.745,1805.218,2324.235z"/>
</g>
<g>
	<path d="M1905.856,2292.775c2.633-0.183,0.356,5.717,0.554,7.675C1905.754,2297.979,1905.786,2295.161,1905.856,2292.775z"/>
</g>
<g>
	<path d="M1804.396,2295.252h0.398c-0.007,1.443-0.032,4.333-0.042,5.776h-0.364
		C1803.525,2299.289,1803.5,2296.943,1804.396,2295.252z"/>
</g>
<g>
	<path d="M1933.569,2297.475c0.97,3.554,0.257,7.284,0.53,11.023h-0.827C1933.262,2304.744,1932.906,2301.103,1933.569,2297.475z"/>
</g>
<g>
	<path d="M1970.511,2306.938c0.398-2.47-0.814-5.719,0.705-7.766c-0.074,2.403,0.544,5.229-0.149,7.734L1970.511,2306.938z"/>
</g>
<g>
	<path d="M1906.724,2306.003l0.829,0.007c-0.134,3.581,0.332,7.385-0.299,11.023
		C1906.217,2313.445,1906.905,2309.574,1906.724,2306.003z"/>
	<path d="M1805.663,2342.488l0.807-0.018c0.025,3.564-0.077,7.113-0.044,10.776l-0.802,0.007
		C1805.549,2349.573,1805.465,2346.059,1805.663,2342.488z"/>
</g>
<g>
	<path d="M1970.511,2306.938l0.557-0.032c0.876,1.666,0.653,3.987-0.101,5.717
		C1970.261,2310.693,1970.113,2308.795,1970.511,2306.938z"/>
	<path d="M1784.048,2321.867l0.539-0.042c0.871,1.673,0.671,3.994-0.109,5.719
		C1783.783,2325.622,1783.634,2323.723,1784.048,2321.867z"/>
</g>
<g>
	<path d="M1784.072,2311.797l0.822,0.025c0.215,3.324,0.116,6.655-0.307,10.003l-0.539,0.042
		C1784.033,2318.459,1784.04,2315.111,1784.072,2311.797z"/>
</g>
<g>
	<path d="M1721.904,2325.904c0.205-2.064,0.629-6.202,0.844-8.264c-0.008,2.792-0.124,5.353-0.032,8.264H1721.904z"/>
</g>
<g>
	<path d="M1805.225,2318.459h0.398c-0.01,1.443-0.035,4.336-0.042,5.776h-0.364
		C1804.356,2322.496,1804.332,2320.149,1805.225,2318.459z"/>
	<path d="M1784.919,2339.048l0.515,0.042c0.446,2.195,0.47,4.541-0.01,6.771l-0.547,0.035
		C1784.852,2343.549,1784.859,2341.27,1784.919,2339.048z"/>
	<path d="M1973.056,2364.029c2.552-0.106,0.215,5.487,0.762,7.452l-0.804-0.025
		C1973.056,2369.001,1972.875,2366.316,1973.056,2364.029z"/>
</g>
<g>
	<path d="M1971.375,2322.587h0.827c0.148,3.373,0.05,6.764-0.307,10.187C1971.298,2329.376,1971.331,2325.904,1971.375,2322.587z"/>
</g>
<g>
	<path d="M2302.111,2327.693c1.485,0.621,1.485,4.858,0.01,5.529C2302.121,2331.838,2302.111,2329.076,2302.111,2327.693z"/>
</g>
<g>
	<path d="M1723.055,2332.284c0.913,3.574,0.23,7.286,0.522,11.023h-0.829C1722.755,2339.555,1722.367,2335.907,1723.055,2332.284z"
		/>
</g>
<g>
	<path d="M1842.93,2341.542l0.515,0.024c0.455,2.967,0.381,6.333,0.114,9.417C1842.845,2347.917,1842.638,2344.767,1842.93,2341.542
		z"/>
</g>
<g>
	<path d="M1749.437,2344.76c0.656,2.933,0.886,6.041,0.671,9.315l-0.846,0.017
		C1749.305,2351.753,1749.395,2347.088,1749.437,2344.76z"/>
</g>
<g>
	<path d="M1784.877,2345.896l0.547-0.035c0.854,1.673,0.653,3.987-0.114,5.72
		C1784.602,2349.647,1784.463,2347.752,1784.877,2345.896z"/>
</g>
<g>
	<path d="M2141.285,2354.929c2.802,0.007,5.395-0.166,8.306-0.017l-0.017,0.822
		C2147.501,2355.533,2143.356,2355.127,2141.285,2354.929z"/>
</g>
<g>
	<path d="M1936.064,2367.105c0.582,2.245,0.292,4.391,0.532,6.885C1934.656,2373.196,1936.081,2369.11,1936.064,2367.105z"/>
</g>
<g>
	<path d="M1807.596,2382.853c0.554,2.237,0.299,4.358,0.572,6.838C1806.178,2389.084,1807.621,2384.825,1807.596,2382.853z"/>
</g>
<g>
	<path d="M1711.94,2403.813c4.955-0.032,9.929-0.04,14.943,0.01l-0.015,0.802c-4.999-0.049-9.939,0.141-14.889-0.024
		L1711.94,2403.813z"/>
</g>
</svg>
