<?xml version="1.0" encoding="utf-8"?>
<!-- Generator: Adobe Illustrator 16.0.3, SVG Export Plug-In . SVG Version: 6.00 Build 0)  -->
<!DOCTYPE svg PUBLIC "-//W3C//DTD SVG 1.1//EN" "http://www.w3.org/Graphics/SVG/1.1/DTD/svg11.dtd">
<svg version="1.1" id="Capa_1" xmlns="http://www.w3.org/2000/svg" xmlns:xlink="http://www.w3.org/1999/xlink" x="0px" y="0px"
	 width="100px" height="33px" viewBox="0 0 100 33" enable-background="new 0 0 100 33" xml:space="preserve">
<g>
	<g>
		<g>
			
				<linearGradient id="SVGID_1_" gradientUnits="userSpaceOnUse" x1="425.3145" y1="-243.0254" x2="409.1405" y2="-215.0113" gradientTransform="matrix(1 0 0 -1 -370.96 -215.1602)">
				<stop  offset="0" style="stop-color:#2A3B90"/>
				<stop  offset="0.2965" style="stop-color:#4C3E91"/>
				<stop  offset="0.9809" style="stop-color:#A5519A"/>
				<stop  offset="1" style="stop-color:#A9529A"/>
			</linearGradient>
			<path fill="url(#SVGID_1_)" d="M34.587,1.966c0.172-0.211,0.47-0.238,0.724-0.241c1.087,0.142,2.166,0.336,3.249,0.513
				c5.359,0.903,10.71,1.844,16.063,2.781c1.806,0.316,3.611,0.636,5.417,0.953c0.129,0.03,0.268,0.032,0.389,0.092
				c0.2,0.073,0.37,0.268,0.382,0.485c-0.002,0.07,0,0.142,0,0.213c-0.022,0.318-0.077,0.634-0.115,0.95
				c-0.153,1.244-0.306,2.488-0.468,3.731c-0.306,2.438-0.606,4.876-0.913,7.313c-0.264,2.107-0.525,4.215-0.791,6.322
				c-0.012,0.206-0.109,0.406-0.272,0.535c-0.098,0.063-0.205,0.114-0.322,0.131c-0.46,0.031-0.917,0.095-1.375,0.145
				c-2.712,0.328-5.422,0.675-8.131,1.022c-3.113,0.399-6.225,0.801-9.337,1.206c-0.842,0.107-1.684,0.22-2.526,0.326
				c-0.291,0.061-0.656,0.022-0.835-0.245c-0.079-0.131-0.085-0.289-0.087-0.438c-0.001-0.047,0.004-0.089-0.009-0.132
				c-0.112-2.064-0.2-4.131-0.304-6.196c-0.015-0.554-0.062-1.106-0.071-1.66c0-0.055-0.003-0.107-0.01-0.16
				c-0.086-1.665-0.157-3.33-0.238-4.996c-0.034-0.788-0.077-1.576-0.107-2.364c-0.001-0.051,0.004-0.099-0.009-0.146
				c-0.088-1.881-0.176-3.762-0.261-5.644c-0.069-1.344-0.118-2.69-0.193-4.034C34.431,2.266,34.479,2.093,34.587,1.966z
				 M58.7,13.75c-2.591,0.318-5.182,0.634-7.771,0.952c-0.094,0.038-0.067,0.162-0.089,0.241c-0.052,0.393-0.105,0.785-0.156,1.178
				c-0.404,3.029-0.806,6.059-1.209,9.088c-0.017,0.159-0.058,0.316-0.043,0.478c0.034,0.039,0.093,0.055,0.141,0.036
				c2.585-0.337,5.171-0.669,7.756-1.003c0.045-0.01,0.067-0.053,0.073-0.095c0.107-0.775,0.22-1.551,0.329-2.326
				c0.033-0.08-0.056-0.156-0.129-0.132c-1.674,0.215-3.349,0.428-5.022,0.642c-0.068,0-0.124-0.085-0.091-0.15
				c0.049-0.356,0.096-0.714,0.146-1.069c0.028-0.16,0.027-0.324,0.075-0.479c0.088-0.063,0.204-0.048,0.306-0.067
				c1.452-0.184,2.904-0.369,4.356-0.551c0.03-0.009,0.052-0.032,0.072-0.055c0.107-0.736,0.21-1.474,0.314-2.21
				c0.025-0.078-0.05-0.151-0.127-0.128c-1.463,0.183-2.926,0.368-4.389,0.548c-0.074,0.023-0.206,0.01-0.194-0.094
				c0.061-0.479,0.133-0.958,0.192-1.438c0.01-0.044,0.015-0.117,0.067-0.133c0.082-0.032,0.174-0.025,0.26-0.041
				c1.582-0.197,3.163-0.394,4.745-0.588c0.058-0.013,0.134,0.001,0.181-0.046c0.042-0.04,0.032-0.104,0.043-0.154
				c0.107-0.758,0.22-1.516,0.323-2.273C58.89,13.789,58.786,13.702,58.7,13.75z M48.952,14.942
				c-0.925,0.116-1.852,0.227-2.776,0.342c-0.054,0.02-0.065,0.088-0.099,0.128c-0.925,1.45-1.849,2.9-2.773,4.35
				c-0.032,0.028-0.099,0.047-0.128,0.009c-0.057-0.059-0.077-0.143-0.113-0.212c-0.451-0.969-0.901-1.938-1.351-2.907
				c-0.123-0.248-0.225-0.506-0.357-0.749c-0.062-0.032-0.132-0.013-0.196-0.005c-0.907,0.111-1.813,0.222-2.72,0.334
				c-0.079,0.021-0.083,0.117-0.085,0.183c-0.037,0.33-0.079,0.659-0.117,0.989c-0.388,3.277-0.777,6.555-1.164,9.833
				c0.011,0.044,0.051,0.084,0.098,0.086c0.855-0.109,1.71-0.223,2.565-0.33c0.058-0.039,0.07-0.111,0.069-0.176
				c0.229-1.87,0.454-3.741,0.684-5.611c0.018-0.087,0.001-0.186,0.05-0.264c0.055-0.042,0.139-0.03,0.166,0.038
				c0.156,0.319,0.326,0.632,0.483,0.95c0.119,0.231,0.226,0.469,0.355,0.695c0.15,0.303,0.303,0.605,0.454,0.908
				c0.193,0.348,0.353,0.712,0.542,1.062c0.025,0.032,0.023,0.096,0.092,0.057c0.313-0.48,0.633-0.956,0.955-1.43
				c0.635-0.95,1.265-1.903,1.903-2.851c0.045-0.091,0.221-0.044,0.183,0.069c-0.244,1.909-0.491,3.818-0.73,5.728
				c-0.02,0.048,0.001,0.099,0.038,0.13c0.172,0.01,0.341-0.034,0.512-0.05c0.692-0.088,1.384-0.18,2.077-0.267
				c0.04-0.01,0.089-0.021,0.1-0.068c0.104-0.791,0.208-1.583,0.311-2.375c0.368-2.819,0.741-5.638,1.105-8.457
				C49.116,15.003,49.033,14.907,48.952,14.942z"/>
		</g>
	</g>
	<g>
		<path fill="#9F2627" d="M65.548,4.593h0.016c0,0.064,0,0.193,0,0.257l-0.017,0.001C65.547,4.765,65.545,4.679,65.548,4.593z"/>
	</g>
	<g>
		<path fill="#5B1618" d="M34.891,12.09c0.013,0.048,0.008,0.096,0.009,0.146C34.857,12.223,34.893,12.13,34.891,12.09z"/>
	</g>
	<g>
		<path fill="#FFFFFF" d="M58.7,13.733c0.086-0.049,0.189,0.038,0.159,0.129c-0.104,0.759-0.217,1.517-0.323,2.274
			c-0.011,0.051-0.001,0.114-0.043,0.154c-0.047,0.046-0.123,0.033-0.182,0.045c-1.581,0.194-3.162,0.392-4.744,0.588
			c-0.086,0.017-0.178,0.009-0.26,0.042c-0.054,0.015-0.058,0.088-0.067,0.132c-0.06,0.479-0.132,0.958-0.192,1.438
			c-0.012,0.104,0.12,0.117,0.194,0.093c1.463-0.18,2.926-0.365,4.389-0.547c0.077-0.023,0.151,0.05,0.127,0.128
			c-0.104,0.736-0.207,1.474-0.314,2.21c-0.021,0.021-0.042,0.045-0.072,0.055c-1.452,0.182-2.904,0.367-4.356,0.55
			c-0.102,0.021-0.218,0.004-0.306,0.067c-0.048,0.155-0.047,0.32-0.075,0.479c-0.05,0.356-0.097,0.714-0.146,1.07
			c-0.034,0.064,0.022,0.149,0.091,0.15c1.674-0.215,3.349-0.427,5.022-0.642c0.073-0.025,0.162,0.052,0.129,0.132
			c-0.109,0.775-0.222,1.55-0.329,2.325c-0.006,0.042-0.028,0.085-0.073,0.096c-2.585,0.334-5.171,0.666-7.756,1.002
			c-0.048,0.02-0.107,0.004-0.141-0.035c-0.015-0.161,0.027-0.319,0.043-0.479c0.403-3.029,0.805-6.058,1.209-9.087
			c0.05-0.393,0.104-0.785,0.156-1.178c0.022-0.08-0.005-0.203,0.088-0.241C53.519,14.367,56.109,14.051,58.7,13.733z"/>
		<path fill="#FFFFFF" d="M48.952,14.926c0.082-0.035,0.164,0.06,0.13,0.138c-0.365,2.82-0.738,5.639-1.105,8.458
			c-0.104,0.791-0.208,1.583-0.311,2.375c-0.01,0.046-0.06,0.059-0.1,0.068c-0.692,0.086-1.384,0.178-2.077,0.267
			c-0.171,0.015-0.34,0.06-0.512,0.05c-0.037-0.031-0.058-0.082-0.038-0.131c0.24-1.909,0.486-3.818,0.73-5.728
			c0.039-0.112-0.138-0.16-0.183-0.068c-0.639,0.946-1.268,1.9-1.903,2.85c-0.322,0.475-0.642,0.95-0.955,1.431
			c-0.069,0.038-0.067-0.025-0.092-0.058c-0.189-0.349-0.35-0.714-0.542-1.061c-0.151-0.304-0.303-0.605-0.454-0.909
			c-0.129-0.226-0.236-0.464-0.355-0.694c-0.157-0.319-0.327-0.631-0.483-0.95c-0.026-0.068-0.111-0.081-0.166-0.039
			c-0.049,0.078-0.032,0.177-0.05,0.265c-0.23,1.87-0.455,3.74-0.684,5.61c0.001,0.065-0.011,0.137-0.069,0.177
			c-0.855,0.107-1.71,0.221-2.565,0.329c-0.047-0.002-0.087-0.042-0.098-0.086c0.387-3.277,0.776-6.555,1.164-9.832
			c0.038-0.33,0.08-0.659,0.117-0.989c0.003-0.065,0.006-0.163,0.085-0.184c0.907-0.111,1.813-0.223,2.72-0.333
			c0.064-0.009,0.135-0.028,0.197,0.004c0.132,0.243,0.234,0.502,0.357,0.749c0.45,0.97,0.9,1.938,1.351,2.907
			c0.036,0.07,0.056,0.154,0.113,0.212c0.029,0.038,0.096,0.021,0.128-0.008c0.924-1.449,1.848-2.9,2.773-4.35
			c0.034-0.04,0.045-0.109,0.099-0.128C47.1,15.151,48.026,15.042,48.952,14.926z"/>
	</g>
	<g>
		<path fill="#992525" d="M35.244,19.597c0.006,0.052,0.01,0.105,0.01,0.159H35.24C35.241,19.716,35.243,19.637,35.244,19.597z"/>
	</g>
	<g>
		<path fill="#010202" d="M54.656,27.141c0.036,0.009,0.104-0.029,0.136,0.011c0.012,0.045-0.015,0.083-0.031,0.121
			c-0.111,0.257-0.255,0.498-0.365,0.756c-0.12,0.24-0.241,0.479-0.356,0.722c-0.02,0.059-0.02,0.129-0.004,0.19
			c0.018,0.217,0.028,0.434,0.034,0.651c0,0.023,0.001,0.07,0.001,0.095c-0.006,0.046-0.068,0.024-0.101,0.032
			c-0.174,0.02-0.348,0.054-0.522,0.054c-0.047-0.087-0.022-0.201-0.031-0.297c-0.015-0.207-0.019-0.414-0.032-0.62
			c-0.294-0.461-0.602-0.912-0.898-1.37c-0.018-0.026-0.036-0.073-0.001-0.092c0.225-0.02,0.448-0.063,0.674-0.072
			c0.092,0.11,0.153,0.244,0.233,0.363c0.084,0.139,0.168,0.276,0.255,0.413c0.085,0.024,0.095-0.089,0.125-0.14
			c0.117-0.249,0.224-0.504,0.344-0.749C54.292,27.175,54.477,27.166,54.656,27.141z"/>
	</g>
	<g>
		<path fill="#010202" d="M51.501,27.447c0.064-0.002,0.133-0.003,0.198,0l0.001,0.014c-0.068-0.001-0.133,0-0.199,0V27.447z"/>
	</g>
	<g>
		<path fill="#010202" d="M50.934,27.633c0.173-0.097,0.367-0.167,0.567-0.172c0.066,0,0.131-0.001,0.199,0
			c0.201,0.008,0.395,0.091,0.553,0.213c0.061,0.048,0.127,0.103,0.14,0.185c-0.009,0.034-0.021,0.067-0.043,0.096
			c-0.089,0.087-0.176,0.175-0.263,0.263c-0.018,0.019-0.04,0.031-0.063,0.039c-0.023,0-0.071,0-0.095,0.001
			c-0.102-0.059-0.2-0.146-0.324-0.162c-0.055-0.01-0.112-0.017-0.165-0.001c-0.192,0.03-0.355,0.173-0.435,0.347
			c-0.11,0.26-0.099,0.585,0.084,0.81c0.161,0.205,0.479,0.218,0.687,0.075c0.092-0.058,0.146-0.163,0.241-0.215
			c0.108-0.031,0.187,0.072,0.275,0.113c0.062,0.041,0.138,0.07,0.174,0.14c-0.014,0.034,0.018,0.094-0.015,0.126
			c-0.17,0.258-0.429,0.462-0.733,0.53c-0.085,0.021-0.173,0.028-0.259,0.038c-0.05-0.002-0.095,0-0.143,0
			c-0.274-0.007-0.539-0.143-0.724-0.34c-0.188-0.204-0.295-0.478-0.312-0.753c0-0.091,0-0.18,0-0.27
			C50.311,28.264,50.561,27.853,50.934,27.633z"/>
		<path fill="#010202" d="M49.291,27.763c0.184-0.015,0.366-0.045,0.55-0.061c0.025-0.007,0.039,0.017,0.054,0.032
			c0.025,0.632,0.052,1.263,0.079,1.894c0.017,0.108,0.007,0.22,0.009,0.33c0,0.057-0.001,0.117,0.009,0.175
			c0.011,0.023-0.013,0.035-0.027,0.049c-0.141,0.017-0.28,0.038-0.421,0.048c-0.042,0-0.093,0.032-0.126-0.003
			c-0.302-0.365-0.61-0.725-0.91-1.092c-0.019-0.036-0.07-0.073-0.103-0.031c-0.026,0.035-0.005,0.091-0.012,0.133
			c-0.007,0.032-0.004,0.064,0.008,0.098c0.007,0.056,0.009,0.112,0.007,0.17c-0.001,0.057-0.001,0.116,0.009,0.175
			c0.006,0.059,0.005,0.12,0.005,0.181c0.002,0.061-0.008,0.127,0.009,0.188c0.005,0.054,0.007,0.109,0.006,0.166
			c-0.003,0.039,0,0.085-0.001,0.127l-0.001,0.013c-0.164,0.038-0.335,0.034-0.5,0.065c-0.031,0-0.132,0.034-0.123-0.035
			c-0.004-0.042,0.001-0.079-0.009-0.117c-0.01-0.062-0.005-0.121-0.006-0.181c-0.004-0.063,0.008-0.128-0.008-0.188
			c-0.01-0.061-0.005-0.121-0.006-0.18c-0.004-0.064,0.008-0.128-0.009-0.189c-0.01-0.089-0.005-0.177-0.005-0.266
			c-0.005-0.063,0.007-0.128-0.009-0.188c-0.007-0.027-0.007-0.056-0.006-0.083c0-0.023,0-0.071,0-0.096
			c-0.005-0.063,0.008-0.129-0.008-0.19c-0.007-0.026-0.006-0.054-0.005-0.08c-0.004-0.064,0.007-0.128-0.009-0.189
			c-0.01-0.061-0.005-0.12-0.005-0.18c-0.001-0.063,0-0.125,0-0.187c0-0.023,0-0.071,0-0.095c0.014-0.057,0.105-0.025,0.143-0.046
			c0.152-0.004,0.3-0.047,0.452-0.04c0.298,0.354,0.594,0.712,0.892,1.066c0.033,0.055,0.137,0.015,0.09-0.061
			c-0.009-0.279-0.028-0.559-0.028-0.838c-0.005-0.063,0.008-0.128-0.009-0.188C49.246,27.824,49.253,27.784,49.291,27.763z"/>
		<path fill="#010202" d="M46.648,28.072c0.228-0.021,0.454-0.062,0.681-0.072c0.073-0.005,0.035,0.095,0.042,0.142
			c0.002,0.062-0.008,0.127,0.009,0.189c0.001,0.023,0.004,0.07,0.006,0.095c-0.001,0.037-0.001,0.075,0,0.113
			c0.016,0.056-0.085,0.026-0.099,0.042c-0.331,0.042-0.662,0.078-0.992,0.117c-0.042,0.008-0.093-0.004-0.118,0.036
			c-0.029,0.029-0.01,0.084-0.002,0.121c0.001,0.024,0.005,0.073,0.006,0.098c-0.013,0.035-0.01,0.067,0.007,0.098
			c0.024,0.043,0.077,0.026,0.12,0.026c0.294-0.042,0.59-0.068,0.884-0.106c0.01-0.013,0.098-0.019,0.094,0.023
			c-0.001,0.04-0.001,0.089,0.01,0.131c0.001,0.024,0.004,0.071,0.005,0.096c0.003,0.061-0.009,0.127,0.009,0.188
			c0.014,0.038,0.004,0.095-0.042,0.104c-0.324,0.028-0.647,0.072-0.971,0.108c-0.083-0.016-0.107,0.042-0.088,0.111
			c0,0.024,0,0.071,0,0.096c-0.005,0.055-0.001,0.108,0.011,0.161c0.021,0.043,0.076,0.022,0.117,0.023
			c0.336-0.048,0.675-0.075,1.012-0.12c0.027-0.009,0.121-0.024,0.108,0.036c0.003,0.062-0.007,0.127,0.009,0.189
			c0.001,0.023,0.004,0.07,0.005,0.095c0.003,0.061-0.008,0.127,0.009,0.188c0.01,0.026-0.004,0.064-0.033,0.072
			c-0.597,0.069-1.195,0.137-1.793,0.207c-0.019,0.004-0.043-0.008-0.041-0.028c-0.004-0.043,0-0.079-0.01-0.117
			c-0.001-0.024-0.005-0.073-0.006-0.098c0-0.024,0-0.073,0-0.098s0-0.073,0-0.099c0.005-0.036,0.002-0.069-0.007-0.1
			c-0.007-0.038-0.01-0.076-0.007-0.113c0-0.063,0.001-0.123,0.001-0.185c-0.003-0.043,0.001-0.079-0.009-0.117
			c-0.001-0.024-0.005-0.073-0.006-0.098c0-0.024,0-0.073,0-0.098c0-0.024,0.001-0.074,0.001-0.099
			c0.005-0.036,0.002-0.069-0.007-0.1c-0.002-0.025-0.006-0.076-0.008-0.102c0-0.024,0-0.073,0-0.098
			c0-0.024,0.001-0.073,0.001-0.099c0.005-0.036,0.002-0.069-0.007-0.1c-0.002-0.025-0.006-0.076-0.008-0.102
			c0-0.024,0-0.072,0-0.097c0-0.025,0-0.074,0.001-0.1c0.004-0.036,0.002-0.069-0.007-0.099c-0.007-0.039-0.01-0.077-0.007-0.114
			c0-0.067,0-0.133,0-0.198c0.006-0.045,0.067-0.028,0.104-0.035C45.97,28.149,46.309,28.113,46.648,28.072z"/>
		<path fill="#010202" d="M43.066,29.145c0.18-0.463,0.64-0.814,1.141-0.833c0.089,0.001,0.179,0,0.27,0.001
			c0.217,0.002,0.422,0.104,0.596,0.228c0.018,0.07-0.043,0.114-0.071,0.17c-0.08,0.122-0.161,0.244-0.25,0.359
			c-0.012,0.016-0.038,0.01-0.051-0.001c-0.119-0.084-0.259-0.149-0.408-0.146c-0.235-0.016-0.47,0.12-0.581,0.328
			c-0.131,0.24-0.137,0.552,0.001,0.791c0.079,0.139,0.229,0.229,0.385,0.252c0.182,0.027,0.371-0.032,0.519-0.139
			c0.001-0.038,0.001-0.074,0.002-0.111c0.004-0.056,0-0.109-0.011-0.159c-0.019-0.032-0.049-0.04-0.088-0.023
			c-0.098,0.015-0.197,0.019-0.294,0.033c-0.024,0.008-0.071,0-0.061-0.034c-0.005-0.064,0.007-0.128-0.009-0.189
			c-0.005-0.037-0.007-0.073-0.006-0.109c-0.001-0.05,0-0.094,0-0.141c0.004-0.04,0.056-0.035,0.089-0.037
			c0.307-0.03,0.612-0.067,0.918-0.105c0.025-0.008,0.047,0.017,0.042,0.042c0,0.057,0,0.114,0,0.173
			c-0.007,0.031-0.004,0.063,0.007,0.097c0.002,0.025,0.006,0.077,0.008,0.103c0,0.023,0,0.071,0,0.095
			c-0.001,0.038-0.001,0.077,0,0.117c-0.007,0.032-0.005,0.064,0.007,0.097c0.002,0.025,0.006,0.077,0.008,0.103
			c0,0.023,0,0.071,0,0.096c-0.001,0.061,0,0.123,0,0.187c-0.005,0.053-0.067,0.077-0.099,0.113
			c-0.251,0.223-0.572,0.372-0.909,0.397c-0.086-0.001-0.171-0.001-0.256-0.001c-0.39-0.021-0.751-0.284-0.901-0.643
			C42.92,29.902,42.916,29.492,43.066,29.145z"/>
		<g>
			<path fill="#010202" d="M41.8,28.618c0.037-0.002,0.111-0.005,0.148-0.006c0.341,0.767,0.682,1.533,1.019,2.302
				c0.053,0.105-0.088,0.078-0.136,0.095c-0.17,0.009-0.337,0.045-0.508,0.055c-0.092-0.126-0.111-0.297-0.204-0.422
				c-0.287,0.025-0.573,0.067-0.86,0.1c-0.067,0.136-0.106,0.287-0.149,0.434c-0.042,0.063-0.127,0.04-0.189,0.053
				c-0.148,0.008-0.293,0.043-0.441,0.048c-0.022-0.017-0.042-0.039-0.031-0.067c0.28-0.795,0.55-1.593,0.831-2.388
				c0.021-0.05,0.02-0.114,0.065-0.15C41.497,28.653,41.648,28.637,41.8,28.618z M41.642,29.549c-0.01,0.009-0.019,0.02-0.026,0.03
				c-0.054,0.157-0.104,0.316-0.154,0.475c-0.015,0.026-0.047,0.109,0.007,0.117c0.12-0.008,0.239-0.028,0.359-0.036
				c0.054,0.02,0.098-0.027,0.075-0.073c-0.069-0.171-0.139-0.343-0.211-0.513C41.675,29.545,41.659,29.545,41.642,29.549z"/>
		</g>
	</g>
	<g>
		<path fill="#611818" d="M35.628,27.613c0.013,0.043,0.007,0.085,0.009,0.132C35.589,27.74,35.632,27.648,35.628,27.613z"/>
	</g>
	<g>
		<path fill="#010202" d="M49.264,27.868c0.017,0.061,0.004,0.125,0.009,0.188h-0.014C49.259,27.992,49.253,27.931,49.264,27.868z"
			/>
		<path fill="#010202" d="M47.457,29.93h0.014c-0.002,0.062,0.006,0.127-0.005,0.189C47.449,30.057,47.459,29.991,47.457,29.93z"/>
	</g>
	<g>
		<path fill="#010202" d="M47.717,28.07c-0.01-0.027-0.019-0.082,0.008-0.096c0,0.023,0,0.071,0,0.095L47.717,28.07z"/>
		<path fill="#010202" d="M45.548,28.937c0.01,0.03,0.012,0.063,0.007,0.1h-0.007C45.531,29.007,45.533,28.966,45.548,28.937z"/>
		<path fill="#010202" d="M45.563,29.334c0.01,0.03,0.012,0.063,0.007,0.1h-0.007C45.545,29.404,45.547,29.363,45.563,29.334z"/>
	</g>
	<g>
		<path fill="#010202" d="M47.717,28.07l0.009-0.001c0,0.062,0,0.123,0,0.187h-0.014C47.714,28.192,47.704,28.131,47.717,28.07z"/>
		<path fill="#010202" d="M47.774,29.528c0.017,0.062,0.004,0.125,0.009,0.189h-0.014C47.769,29.653,47.763,29.591,47.774,29.528z"
			/>
	</g>
	<g>
		<path fill="#010202" d="M51.439,28.094c0.053-0.016,0.109-0.009,0.165,0.001C51.548,28.097,51.494,28.104,51.439,28.094z"/>
	</g>
	<g>
		<path fill="#010202" d="M47.372,28.142h0.014c-0.002,0.062,0.006,0.127-0.005,0.189C47.364,28.27,47.374,28.203,47.372,28.142z"/>
		<path fill="#010202" d="M51.929,28.257c0.023-0.001,0.071-0.001,0.095-0.001C52.013,28.282,51.94,28.281,51.929,28.257z"/>
		<path fill="#010202" d="M48.422,29.859h0.014c-0.003,0.061,0.006,0.126-0.005,0.188C48.414,29.986,48.424,29.92,48.422,29.859z"/>
	</g>
	<g>
		<path fill="#010202" d="M45.514,28.228h0.014c-0.001,0.065-0.001,0.131,0,0.198h-0.014C45.512,28.358,45.511,28.293,45.514,28.228
			z"/>
		<path fill="#010202" d="M47.789,29.897c0.016,0.061,0.004,0.125,0.008,0.188h-0.014C47.783,30.021,47.777,29.959,47.789,29.897z"
			/>
	</g>
	<g>
		<path fill="#010202" d="M44.208,28.298c0.089,0,0.179-0.002,0.269,0.001l0,0.014c-0.09-0.001-0.18,0-0.27-0.001V28.298z"/>
	</g>
	<g>
		<path fill="#010202" d="M47.386,28.426c0.031,0.013,0.007,0.079,0.013,0.113h-0.014C47.385,28.501,47.385,28.463,47.386,28.426z"
			/>
	</g>
	<g>
		<path fill="#010202" d="M47.732,28.436c0.016,0.062,0.004,0.125,0.009,0.189h-0.014C47.727,28.561,47.72,28.498,47.732,28.436z"/>
		<path fill="#010202" d="M47.471,30.214h0.014c-0.002,0.062,0.006,0.126-0.005,0.188C47.462,30.341,47.474,30.274,47.471,30.214z"
			/>
	</g>
	<g>
		<path fill="#010202" d="M45.534,28.539c0.01,0.03,0.012,0.063,0.007,0.1h-0.007C45.517,28.609,45.519,28.568,45.534,28.539z"/>
		<path fill="#010202" d="M45.575,29.728c0.011,0.038,0.006,0.074,0.009,0.117H45.57C45.568,29.806,45.568,29.766,45.575,29.728z"/>
		<path fill="#010202" d="M45.591,30.143c0.01,0.03,0.012,0.063,0.007,0.1h-0.007C45.574,30.213,45.576,30.172,45.591,30.143z"/>
	</g>
	<g>
		<path fill="#010202" d="M45.535,28.639h0.007c0,0.024,0,0.074-0.001,0.1h-0.006C45.52,28.708,45.52,28.668,45.535,28.639z"/>
		<path fill="#010202" d="M45.591,30.242h0.007c0,0.025,0,0.074,0,0.099h-0.006C45.577,30.312,45.576,30.271,45.591,30.242z"/>
	</g>
	<g>
		<path fill="#010202" d="M50.267,28.696l0.014-0.001c0,0.09-0.001,0.179,0,0.27h-0.014C50.266,28.874,50.264,28.785,50.267,28.696z
			"/>
	</g>
	<g>
		<path fill="#010202" d="M47.746,28.705c0.017,0.062,0.003,0.126,0.008,0.19h-0.009C47.736,28.832,47.737,28.768,47.746,28.705z"/>
	</g>
	<g>
		<path fill="#010202" d="M45.534,28.738h0.006c0,0.024,0,0.072,0,0.097C45.512,28.82,45.521,28.764,45.534,28.738z"/>
		<path fill="#010202" d="M46.209,29.733c0.026,0.015,0.018,0.069,0.008,0.096h-0.009C46.208,29.805,46.208,29.758,46.209,29.733z"
			/>
		<path fill="#010202" d="M45.591,30.341h0.006c0,0.024,0,0.073,0,0.098C45.569,30.424,45.579,30.367,45.591,30.341z"/>
	</g>
	<g>
		<path fill="#010202" d="M46.174,28.855c-0.007-0.037-0.027-0.092,0.002-0.121C46.181,28.774,46.182,28.815,46.174,28.855z"/>
	</g>
	<g>
		<path fill="#010202" d="M54.035,28.94c-0.016-0.062-0.016-0.132,0.004-0.19C54.037,28.812,54.047,28.878,54.035,28.94z"/>
		<path fill="#010202" d="M49.982,29.958h0.014c0.002,0.058,0.001,0.116-0.005,0.175C49.981,30.075,49.982,30.015,49.982,29.958z"/>
		<path fill="#010202" d="M45.229,30.197l0.009,0.001c0.008,0.06,0.005,0.123,0.004,0.186l-0.013,0.001
			C45.229,30.321,45.228,30.259,45.229,30.197z"/>
	</g>
	<g>
		<path fill="#010202" d="M47.746,28.896h0.009c0,0.024,0,0.071,0,0.096C47.727,28.977,47.736,28.922,47.746,28.896z"/>
		<path fill="#010202" d="M45.549,29.135h0.006c0,0.024,0,0.073,0,0.098C45.526,29.218,45.536,29.161,45.549,29.135z"/>
		<path fill="#010202" d="M45.216,29.691c0.026,0.014,0.018,0.068,0.008,0.096l-0.009-0.001
			C45.216,29.763,45.216,29.715,45.216,29.691z"/>
		<path fill="#010202" d="M45.23,30.103c0.026,0.015,0.018,0.068,0.008,0.096l-0.009-0.001C45.229,30.174,45.23,30.126,45.23,30.103
			z"/>
	</g>
	<g>
		<path fill="#010202" d="M46.181,28.953c0.028,0.015,0.017,0.07,0.007,0.098C46.17,29.021,46.167,28.988,46.181,28.953z"/>
		<path fill="#010202" d="M45.563,29.532h0.006c0,0.024,0,0.073,0,0.098C45.541,29.615,45.55,29.559,45.563,29.532z"/>
	</g>
	<g>
		<path fill="#010202" d="M47.286,28.994c0.045-0.004,0.006,0.098,0.01,0.131C47.284,29.083,47.285,29.035,47.286,28.994z"/>
	</g>
	<g>
		<path fill="#010202" d="M45.549,29.036h0.007c0,0.024,0,0.074-0.001,0.099h-0.006C45.534,29.105,45.534,29.065,45.549,29.036z"/>
	</g>
	<g>
		<path fill="#010202" d="M47.76,29.074c0.017,0.061,0.004,0.125,0.009,0.188h-0.014C47.755,29.199,47.749,29.137,47.76,29.074z"/>
	</g>
	<g>
		<path fill="#010202" d="M48.393,29.236c0.007-0.042-0.014-0.098,0.012-0.133c-0.001,0.041,0.009,0.09-0.002,0.132L48.393,29.236z"
			/>
	</g>
	<g>
		<path fill="#010202" d="M47.301,29.221h0.014c-0.002,0.062,0.005,0.126-0.005,0.188C47.292,29.348,47.304,29.281,47.301,29.221z"
			/>
		<path fill="#010202" d="M45.57,29.845h0.014c0,0.062-0.001,0.122-0.001,0.185H45.57C45.568,29.966,45.567,29.906,45.57,29.845z"/>
	</g>
	<g>
		<path fill="#010202" d="M48.393,29.236l0.01-0.001c0.015,0.029,0.011,0.068-0.002,0.099
			C48.388,29.301,48.386,29.269,48.393,29.236z"/>
		<path fill="#010202" d="M45.2,29.492l0.009-0.001c0.015,0.028,0.012,0.068-0.002,0.098C45.196,29.557,45.193,29.523,45.2,29.492z"
			/>
	</g>
	<g>
		<path fill="#010202" d="M45.201,29.319l0.014,0.001c0.004,0.057,0.002,0.113-0.005,0.171L45.2,29.492
			C45.2,29.434,45.2,29.376,45.201,29.319z"/>
	</g>
	<g>
		<path fill="#010202" d="M44.137,29.561c0.003-0.035,0.011-0.105,0.014-0.141c0,0.047-0.002,0.091,0,0.141H44.137z"/>
	</g>
	<g>
		<path fill="#010202" d="M45.563,29.434h0.007c0,0.024,0,0.074-0.001,0.099h-0.006C45.548,29.503,45.548,29.463,45.563,29.434z"/>
		<path fill="#010202" d="M45.215,29.786l0.009,0.001c0.008,0.037,0.008,0.077,0,0.115l-0.009,0.001
			C45.214,29.863,45.214,29.824,45.215,29.786z"/>
		<path fill="#010202" d="M48.437,30.214c0.043-0.002,0.003,0.094,0.013,0.127h-0.014C48.437,30.299,48.433,30.253,48.437,30.214z"
			/>
	</g>
	<g>
		<path fill="#010202" d="M48.408,29.504h0.014c0.002,0.058,0,0.116-0.005,0.175C48.406,29.62,48.407,29.561,48.408,29.504z"/>
	</g>
	<g>
		<path fill="#010202" d="M54.069,29.592c0.026,0.011,0.026,0.083,0.001,0.095C54.07,29.662,54.069,29.615,54.069,29.592z"/>
	</g>
	<g>
		<path fill="#010202" d="M44.156,29.67c0.016,0.062,0.004,0.125,0.009,0.189h-0.014C44.151,29.795,44.145,29.732,44.156,29.67z"/>
	</g>
	<g>
		<path fill="#010202" d="M46.208,29.829h0.009c0.008,0.051,0.006,0.108,0.002,0.161C46.207,29.938,46.204,29.884,46.208,29.829z"/>
	</g>
	<g>
		<path fill="#010202" d="M44.608,29.884c0.011,0.051,0.015,0.104,0.011,0.159l-0.014,0.001
			C44.605,30.004,44.607,29.924,44.608,29.884z"/>
	</g>
	<g>
		<path fill="#010202" d="M45.215,29.903l0.009-0.001c0.015,0.029,0.011,0.068-0.002,0.098
			C45.21,29.968,45.208,29.936,45.215,29.903z"/>
	</g>
	<g>
		<path fill="#010202" d="M51.316,30.058c0.048,0,0.093-0.003,0.143,0l-0.001,0.014C51.423,30.068,51.353,30.062,51.316,30.058z"/>
	</g>
	<g>
		<path fill="#010202" d="M47.803,30.267c0.01,0.038,0.005,0.075,0.009,0.117C47.779,30.371,47.803,30.301,47.803,30.267z"/>
	</g>
	<g>
		<path fill="#010202" d="M45.604,30.536c0.009,0.038,0.005,0.074,0.01,0.117C45.579,30.643,45.604,30.569,45.604,30.536z"/>
	</g>
	<g>
		<path fill="#010202" d="M43.966,30.895c0.085,0,0.17,0,0.256,0.001v0.014c-0.086-0.001-0.17,0.002-0.255-0.001L43.966,30.895z"/>
	</g>
</g>
<g>
</g>
<g>
</g>
<g>
</g>
<g>
</g>
<g>
</g>
<g>
</g>
</svg>
