<?xml version="1.0" encoding="utf-8"?>
<!-- Generator: Adobe Illustrator 16.0.3, SVG Export Plug-In . SVG Version: 6.00 Build 0)  -->
<!DOCTYPE svg PUBLIC "-//W3C//DTD SVG 1.1//EN" "http://www.w3.org/Graphics/SVG/1.1/DTD/svg11.dtd">
<svg version="1.1" id="Capa_1" xmlns="http://www.w3.org/2000/svg" xmlns:xlink="http://www.w3.org/1999/xlink" x="0px" y="0px"
	 width="26.374px" height="29.551px" viewBox="0 0 26.374 29.551" enable-background="new 0 0 26.374 29.551" xml:space="preserve">
<g>
	<g>
		<g>
			
				<linearGradient id="SVGID_1_" gradientUnits="userSpaceOnUse" x1="390.8784" y1="-244.75" x2="374.7045" y2="-216.7359" gradientTransform="matrix(1 0 0 -1 -370.96 -218.6094)">
				<stop  offset="0" style="stop-color:#2A3B90"/>
				<stop  offset="0.2965" style="stop-color:#4C3E91"/>
				<stop  offset="0.9809" style="stop-color:#A5519A"/>
				<stop  offset="1" style="stop-color:#A9529A"/>
			</linearGradient>
			<path fill="url(#SVGID_1_)" d="M0.151,0.241C0.323,0.03,0.621,0.003,0.875,0c1.087,0.142,2.166,0.336,3.249,0.513
				c5.359,0.903,10.71,1.844,16.063,2.781c1.806,0.316,3.611,0.636,5.417,0.953c0.129,0.03,0.268,0.032,0.389,0.092
				c0.2,0.073,0.37,0.268,0.382,0.485c-0.002,0.07,0,0.142,0,0.213c-0.022,0.318-0.077,0.634-0.115,0.95
				c-0.153,1.244-0.306,2.488-0.468,3.731c-0.306,2.438-0.606,4.876-0.913,7.313c-0.264,2.107-0.525,4.215-0.791,6.322
				c-0.012,0.206-0.109,0.406-0.272,0.535c-0.098,0.063-0.205,0.114-0.322,0.131c-0.46,0.031-0.917,0.095-1.375,0.145
				c-2.712,0.328-5.422,0.675-8.131,1.022c-3.113,0.399-6.225,0.801-9.337,1.206c-0.842,0.107-1.684,0.22-2.526,0.326
				c-0.291,0.061-0.656,0.022-0.835-0.245c-0.079-0.131-0.085-0.289-0.087-0.438C1.2,25.99,1.205,25.948,1.192,25.905
				c-0.112-2.064-0.2-4.131-0.304-6.196c-0.015-0.554-0.062-1.106-0.071-1.66c0-0.055-0.003-0.107-0.01-0.16
				c-0.086-1.665-0.157-3.33-0.238-4.996c-0.034-0.788-0.077-1.576-0.107-2.364c-0.001-0.051,0.004-0.099-0.009-0.146
				C0.366,8.501,0.278,6.62,0.193,4.738C0.125,3.395,0.075,2.048,0,0.704C-0.005,0.541,0.043,0.368,0.151,0.241z M24.264,12.025
				c-2.591,0.318-5.182,0.634-7.771,0.952c-0.094,0.038-0.067,0.162-0.089,0.241c-0.052,0.393-0.105,0.785-0.156,1.178
				c-0.404,3.029-0.806,6.059-1.209,9.088c-0.017,0.159-0.058,0.316-0.043,0.478c0.034,0.039,0.093,0.055,0.141,0.036
				c2.585-0.337,5.171-0.669,7.756-1.003c0.045-0.01,0.067-0.053,0.073-0.095c0.107-0.775,0.22-1.551,0.329-2.326
				c0.033-0.08-0.056-0.156-0.129-0.132c-1.674,0.215-3.349,0.428-5.022,0.642c-0.068,0-0.124-0.085-0.091-0.15
				c0.049-0.356,0.096-0.714,0.146-1.069c0.028-0.16,0.027-0.324,0.075-0.479c0.088-0.063,0.204-0.048,0.306-0.067
				c1.452-0.184,2.904-0.369,4.356-0.551c0.03-0.009,0.052-0.032,0.072-0.055c0.107-0.736,0.21-1.474,0.314-2.21
				c0.025-0.078-0.05-0.151-0.127-0.128c-1.463,0.183-2.926,0.368-4.389,0.548c-0.074,0.023-0.206,0.01-0.194-0.094
				c0.061-0.479,0.133-0.958,0.192-1.438c0.01-0.044,0.015-0.117,0.067-0.133c0.082-0.032,0.174-0.025,0.26-0.041
				c1.582-0.197,3.163-0.394,4.745-0.588c0.058-0.013,0.134,0.001,0.181-0.046c0.042-0.04,0.032-0.104,0.043-0.154
				c0.107-0.758,0.22-1.516,0.323-2.273C24.454,12.064,24.35,11.978,24.264,12.025z M14.516,13.218
				c-0.925,0.116-1.852,0.227-2.776,0.342c-0.054,0.02-0.065,0.088-0.099,0.128c-0.925,1.45-1.849,2.9-2.773,4.35
				c-0.032,0.028-0.099,0.047-0.128,0.009c-0.057-0.059-0.077-0.143-0.113-0.212c-0.451-0.969-0.901-1.938-1.351-2.907
				c-0.123-0.248-0.225-0.506-0.357-0.749c-0.062-0.032-0.132-0.013-0.196-0.005c-0.907,0.111-1.813,0.222-2.72,0.334
				c-0.079,0.021-0.083,0.117-0.085,0.183c-0.037,0.33-0.079,0.659-0.117,0.989c-0.388,3.277-0.777,6.555-1.164,9.833
				c0.011,0.044,0.051,0.084,0.098,0.086c0.855-0.109,1.71-0.223,2.565-0.33c0.058-0.039,0.07-0.111,0.069-0.176
				c0.229-1.87,0.454-3.741,0.684-5.611c0.018-0.087,0.001-0.186,0.05-0.264c0.055-0.042,0.139-0.03,0.166,0.038
				c0.156,0.319,0.326,0.632,0.483,0.95c0.119,0.231,0.226,0.469,0.355,0.695c0.15,0.303,0.303,0.605,0.454,0.908
				C7.75,22.156,7.911,22.521,8.1,22.87c0.025,0.032,0.023,0.096,0.092,0.057c0.313-0.48,0.633-0.956,0.955-1.43
				c0.635-0.95,1.265-1.903,1.903-2.851c0.045-0.091,0.221-0.044,0.183,0.069c-0.244,1.909-0.491,3.818-0.73,5.728
				c-0.02,0.048,0.001,0.099,0.038,0.13c0.172,0.01,0.341-0.034,0.512-0.05c0.692-0.088,1.384-0.18,2.077-0.267
				c0.04-0.01,0.089-0.021,0.1-0.068c0.104-0.791,0.208-1.583,0.311-2.375c0.368-2.819,0.741-5.638,1.105-8.457
				C14.68,13.278,14.597,13.183,14.516,13.218z"/>
		</g>
	</g>
	<g>
		<path fill="#9F2627" d="M31.112,2.868h0.016c0,0.064,0,0.193,0,0.257l-0.017,0.001C31.111,3.04,31.109,2.954,31.112,2.868z"/>
	</g>
	<g>
		<path fill="#5B1618" d="M0.455,10.365c0.013,0.048,0.008,0.096,0.009,0.146C0.421,10.498,0.457,10.405,0.455,10.365z"/>
	</g>
	<g>
		<path fill="#FFFFFF" d="M24.264,12.009c0.086-0.049,0.189,0.038,0.159,0.129c-0.104,0.759-0.217,1.517-0.323,2.274
			c-0.011,0.051-0.001,0.114-0.043,0.154c-0.047,0.046-0.123,0.033-0.182,0.045c-1.581,0.194-3.162,0.392-4.744,0.588
			c-0.086,0.017-0.178,0.009-0.26,0.042c-0.054,0.015-0.058,0.088-0.067,0.132c-0.06,0.479-0.132,0.958-0.192,1.438
			c-0.012,0.104,0.12,0.117,0.194,0.093c1.463-0.18,2.926-0.365,4.389-0.547c0.077-0.023,0.151,0.05,0.127,0.128
			c-0.104,0.736-0.207,1.474-0.314,2.21c-0.021,0.021-0.042,0.045-0.072,0.055c-1.452,0.182-2.904,0.367-4.356,0.55
			c-0.102,0.021-0.218,0.004-0.306,0.067c-0.048,0.155-0.047,0.32-0.075,0.479c-0.05,0.356-0.097,0.714-0.146,1.07
			c-0.034,0.064,0.022,0.149,0.091,0.15c1.674-0.215,3.349-0.427,5.022-0.642c0.073-0.025,0.162,0.052,0.129,0.132
			c-0.109,0.775-0.222,1.55-0.329,2.325c-0.006,0.042-0.028,0.085-0.073,0.096c-2.585,0.334-5.171,0.666-7.756,1.002
			c-0.048,0.02-0.107,0.004-0.141-0.035c-0.015-0.161,0.027-0.319,0.043-0.479c0.403-3.029,0.805-6.058,1.209-9.087
			c0.05-0.393,0.104-0.785,0.156-1.178c0.022-0.08-0.005-0.203,0.088-0.241C19.083,12.643,21.673,12.326,24.264,12.009z"/>
		<path fill="#FFFFFF" d="M14.516,13.201c0.082-0.035,0.164,0.06,0.13,0.138c-0.365,2.82-0.738,5.639-1.105,8.458
			c-0.104,0.791-0.208,1.583-0.311,2.375c-0.01,0.046-0.06,0.059-0.1,0.068c-0.692,0.086-1.384,0.178-2.077,0.267
			c-0.171,0.015-0.34,0.06-0.512,0.05c-0.037-0.031-0.058-0.082-0.038-0.131c0.24-1.909,0.486-3.818,0.73-5.728
			c0.039-0.112-0.138-0.16-0.183-0.068c-0.639,0.946-1.268,1.9-1.903,2.85c-0.322,0.475-0.642,0.95-0.955,1.431
			c-0.069,0.038-0.067-0.025-0.092-0.058c-0.189-0.349-0.35-0.714-0.542-1.061c-0.151-0.304-0.303-0.605-0.454-0.909
			c-0.129-0.226-0.236-0.464-0.355-0.694c-0.157-0.319-0.327-0.631-0.483-0.95c-0.026-0.068-0.111-0.081-0.166-0.039
			c-0.049,0.078-0.032,0.177-0.05,0.265c-0.23,1.87-0.455,3.74-0.684,5.61c0.001,0.065-0.011,0.137-0.069,0.177
			c-0.855,0.107-1.71,0.221-2.565,0.329c-0.047-0.002-0.087-0.042-0.098-0.086c0.387-3.277,0.776-6.555,1.164-9.832
			c0.038-0.33,0.08-0.659,0.117-0.989C3.918,14.607,3.922,14.51,4,14.489c0.907-0.111,1.813-0.223,2.72-0.333
			c0.064-0.009,0.135-0.028,0.197,0.004c0.132,0.243,0.234,0.502,0.357,0.749c0.45,0.97,0.9,1.938,1.351,2.907
			c0.036,0.07,0.056,0.154,0.113,0.212c0.029,0.038,0.096,0.021,0.128-0.008c0.924-1.449,1.848-2.9,2.773-4.35
			c0.034-0.04,0.045-0.109,0.099-0.128C12.664,13.427,13.59,13.317,14.516,13.201z"/>
	</g>
	<g>
		<path fill="#992525" d="M0.808,17.872c0.006,0.052,0.01,0.105,0.01,0.159H0.804C0.805,17.991,0.807,17.912,0.808,17.872z"/>
	</g>
	<g>
		<path fill="#010202" d="M20.22,25.416c0.036,0.009,0.104-0.029,0.136,0.011c0.012,0.045-0.015,0.083-0.031,0.121
			c-0.111,0.257-0.255,0.498-0.365,0.756c-0.12,0.24-0.241,0.479-0.356,0.722c-0.02,0.059-0.02,0.129-0.004,0.19
			c0.018,0.217,0.028,0.434,0.034,0.651c0,0.023,0.001,0.07,0.001,0.095c-0.006,0.046-0.068,0.024-0.101,0.032
			c-0.174,0.02-0.348,0.054-0.522,0.054c-0.047-0.087-0.022-0.201-0.031-0.297c-0.015-0.207-0.019-0.414-0.032-0.62
			c-0.294-0.461-0.602-0.912-0.898-1.37c-0.018-0.026-0.036-0.073-0.001-0.092c0.225-0.02,0.448-0.063,0.674-0.072
			c0.092,0.11,0.153,0.244,0.233,0.363c0.084,0.139,0.168,0.276,0.255,0.413c0.085,0.024,0.095-0.089,0.125-0.14
			c0.117-0.249,0.224-0.504,0.344-0.749C19.856,25.45,20.041,25.441,20.22,25.416z"/>
	</g>
	<g>
		<path fill="#010202" d="M17.065,25.723c0.064-0.002,0.133-0.003,0.198,0l0.001,0.014c-0.068-0.001-0.133,0-0.199,0V25.723z"/>
	</g>
	<g>
		<path fill="#010202" d="M16.498,25.908c0.173-0.097,0.367-0.167,0.567-0.172c0.066,0,0.131-0.001,0.199,0
			c0.201,0.008,0.395,0.091,0.553,0.213c0.061,0.048,0.127,0.103,0.14,0.185c-0.009,0.034-0.021,0.067-0.043,0.096
			c-0.089,0.087-0.176,0.175-0.263,0.263c-0.018,0.019-0.04,0.031-0.063,0.039c-0.023,0-0.071,0-0.095,0.001
			c-0.102-0.059-0.2-0.146-0.324-0.162c-0.055-0.01-0.112-0.017-0.165-0.001c-0.192,0.03-0.355,0.173-0.435,0.347
			c-0.11,0.26-0.099,0.585,0.084,0.81c0.161,0.205,0.479,0.218,0.687,0.075c0.092-0.058,0.146-0.163,0.241-0.215
			c0.108-0.031,0.187,0.072,0.275,0.113c0.062,0.041,0.138,0.07,0.174,0.14c-0.014,0.034,0.018,0.094-0.015,0.126
			c-0.17,0.258-0.429,0.462-0.733,0.53c-0.085,0.021-0.173,0.028-0.259,0.038c-0.05-0.002-0.095,0-0.143,0
			c-0.274-0.007-0.539-0.143-0.724-0.34c-0.188-0.204-0.295-0.478-0.312-0.753c0-0.091,0-0.18,0-0.27
			C15.875,26.539,16.125,26.128,16.498,25.908z"/>
		<path fill="#010202" d="M14.855,26.038c0.184-0.015,0.366-0.045,0.55-0.061c0.025-0.007,0.039,0.017,0.054,0.032
			c0.025,0.632,0.052,1.263,0.079,1.894c0.017,0.108,0.007,0.22,0.009,0.33c0,0.057-0.001,0.117,0.009,0.175
			c0.011,0.023-0.013,0.035-0.027,0.049c-0.141,0.017-0.28,0.038-0.421,0.048c-0.042,0-0.093,0.032-0.126-0.003
			c-0.302-0.365-0.61-0.725-0.91-1.092c-0.019-0.036-0.07-0.073-0.103-0.031c-0.026,0.035-0.005,0.091-0.012,0.133
			c-0.007,0.032-0.004,0.064,0.008,0.098c0.007,0.056,0.009,0.112,0.007,0.17c-0.001,0.057-0.001,0.116,0.009,0.175
			c0.006,0.059,0.005,0.12,0.005,0.181c0.002,0.061-0.008,0.127,0.009,0.188C14,28.377,14.001,28.433,14,28.489
			c-0.003,0.039,0,0.085-0.001,0.127l-0.001,0.013c-0.164,0.038-0.335,0.034-0.5,0.065c-0.031,0-0.132,0.034-0.123-0.035
			c-0.004-0.042,0.001-0.079-0.009-0.117c-0.01-0.062-0.005-0.121-0.006-0.181c-0.004-0.063,0.008-0.128-0.008-0.188
			c-0.01-0.061-0.005-0.121-0.006-0.18c-0.004-0.064,0.008-0.128-0.009-0.189c-0.01-0.089-0.005-0.177-0.005-0.266
			c-0.005-0.063,0.007-0.128-0.009-0.188c-0.007-0.027-0.007-0.056-0.006-0.083c0-0.023,0-0.071,0-0.096
			c-0.005-0.063,0.008-0.129-0.008-0.19c-0.007-0.026-0.006-0.054-0.005-0.08c-0.004-0.064,0.007-0.128-0.009-0.189
			c-0.01-0.061-0.005-0.12-0.005-0.18c-0.001-0.063,0-0.125,0-0.187c0-0.023,0-0.071,0-0.095c0.014-0.057,0.105-0.025,0.143-0.046
			c0.152-0.004,0.3-0.047,0.452-0.04c0.298,0.354,0.594,0.712,0.892,1.066c0.033,0.055,0.137,0.015,0.09-0.061
			c-0.009-0.279-0.028-0.559-0.028-0.838c-0.005-0.063,0.008-0.128-0.009-0.188C14.81,26.1,14.817,26.06,14.855,26.038z"/>
		<path fill="#010202" d="M12.212,26.348c0.228-0.021,0.454-0.062,0.681-0.072c0.073-0.005,0.035,0.095,0.042,0.142
			c0.002,0.062-0.008,0.127,0.009,0.189c0.001,0.023,0.004,0.07,0.006,0.095c-0.001,0.037-0.001,0.075,0,0.113
			c0.016,0.056-0.085,0.026-0.099,0.042c-0.331,0.042-0.662,0.078-0.992,0.117c-0.042,0.008-0.093-0.004-0.118,0.036
			c-0.029,0.029-0.01,0.084-0.002,0.121c0.001,0.024,0.005,0.073,0.006,0.098c-0.013,0.035-0.01,0.067,0.007,0.098
			c0.024,0.043,0.077,0.026,0.12,0.026c0.294-0.042,0.59-0.068,0.884-0.106c0.01-0.013,0.098-0.019,0.094,0.023
			c-0.001,0.04-0.001,0.089,0.01,0.131c0.001,0.024,0.004,0.071,0.005,0.096c0.003,0.061-0.009,0.127,0.009,0.188
			c0.014,0.038,0.004,0.095-0.042,0.104c-0.324,0.028-0.647,0.072-0.971,0.108c-0.083-0.016-0.107,0.042-0.088,0.111
			c0,0.024,0,0.071,0,0.096c-0.005,0.055-0.001,0.108,0.011,0.161c0.021,0.043,0.076,0.022,0.117,0.023
			c0.336-0.048,0.675-0.075,1.012-0.12c0.027-0.009,0.121-0.024,0.108,0.036c0.003,0.062-0.007,0.127,0.009,0.189
			c0.001,0.023,0.004,0.07,0.005,0.095c0.003,0.061-0.008,0.127,0.009,0.188c0.01,0.026-0.004,0.064-0.033,0.072
			c-0.597,0.069-1.195,0.137-1.793,0.207c-0.019,0.004-0.043-0.008-0.041-0.028c-0.004-0.043,0-0.079-0.01-0.117
			c-0.001-0.024-0.005-0.073-0.006-0.098c0-0.024,0-0.073,0-0.098s0-0.073,0-0.099c0.005-0.036,0.002-0.069-0.007-0.1
			c-0.007-0.038-0.01-0.076-0.007-0.113c0-0.063,0.001-0.123,0.001-0.185c-0.003-0.043,0.001-0.079-0.009-0.117
			c-0.001-0.024-0.005-0.073-0.006-0.098c0-0.024,0-0.073,0-0.098c0-0.024,0.001-0.074,0.001-0.099
			c0.005-0.036,0.002-0.069-0.007-0.1c-0.002-0.025-0.006-0.076-0.008-0.102c0-0.024,0-0.073,0-0.098
			c0-0.024,0.001-0.073,0.001-0.099c0.005-0.036,0.002-0.069-0.007-0.1c-0.002-0.025-0.006-0.076-0.008-0.102
			c0-0.024,0-0.072,0-0.097c0-0.025,0-0.074,0.001-0.1c0.004-0.036,0.002-0.069-0.007-0.099c-0.007-0.039-0.01-0.077-0.007-0.114
			c0-0.067,0-0.133,0-0.198c0.006-0.045,0.067-0.028,0.104-0.035C11.534,26.425,11.873,26.389,12.212,26.348z"/>
		<path fill="#010202" d="M8.63,27.42c0.18-0.463,0.64-0.814,1.141-0.833c0.089,0.001,0.179,0,0.27,0.001
			c0.217,0.002,0.422,0.104,0.596,0.228c0.018,0.07-0.043,0.114-0.071,0.17c-0.08,0.122-0.161,0.244-0.25,0.359
			c-0.012,0.016-0.038,0.01-0.051-0.001c-0.119-0.084-0.259-0.149-0.408-0.146c-0.235-0.016-0.47,0.12-0.581,0.328
			c-0.131,0.24-0.137,0.552,0.001,0.791c0.079,0.139,0.229,0.229,0.385,0.252c0.182,0.027,0.371-0.032,0.519-0.139
			c0.001-0.038,0.001-0.074,0.002-0.111c0.004-0.056,0-0.109-0.011-0.159c-0.019-0.032-0.049-0.04-0.088-0.023
			c-0.098,0.015-0.197,0.019-0.294,0.033c-0.024,0.008-0.071,0-0.061-0.034c-0.005-0.064,0.007-0.128-0.009-0.189
			c-0.005-0.037-0.007-0.073-0.006-0.109c-0.001-0.05,0-0.094,0-0.141c0.004-0.04,0.056-0.035,0.089-0.037
			c0.307-0.03,0.612-0.067,0.918-0.105c0.025-0.008,0.047,0.017,0.042,0.042c0,0.057,0,0.114,0,0.173
			c-0.007,0.031-0.004,0.063,0.007,0.097c0.002,0.025,0.006,0.077,0.008,0.103c0,0.023,0,0.071,0,0.095
			c-0.001,0.038-0.001,0.077,0,0.117c-0.007,0.032-0.005,0.064,0.007,0.097c0.002,0.025,0.006,0.077,0.008,0.103
			c0,0.023,0,0.071,0,0.096c-0.001,0.061,0,0.123,0,0.187c-0.005,0.053-0.067,0.077-0.099,0.113
			c-0.251,0.223-0.572,0.372-0.909,0.397C9.7,29.17,9.615,29.17,9.53,29.17c-0.39-0.021-0.751-0.284-0.901-0.643
			C8.484,28.178,8.479,27.768,8.63,27.42z"/>
		<g>
			<path fill="#010202" d="M7.364,26.894c0.037-0.002,0.111-0.005,0.148-0.006c0.341,0.767,0.682,1.533,1.019,2.302
				c0.053,0.105-0.088,0.078-0.136,0.095c-0.17,0.009-0.337,0.045-0.508,0.055c-0.092-0.126-0.111-0.297-0.204-0.422
				c-0.287,0.025-0.573,0.067-0.86,0.1c-0.067,0.136-0.106,0.287-0.149,0.434c-0.042,0.063-0.127,0.04-0.189,0.053
				c-0.148,0.008-0.293,0.043-0.441,0.048c-0.022-0.017-0.042-0.039-0.031-0.067c0.28-0.795,0.55-1.593,0.831-2.388
				c0.021-0.05,0.02-0.114,0.065-0.15C7.061,26.929,7.212,26.912,7.364,26.894z M7.206,27.824c-0.01,0.009-0.019,0.02-0.026,0.03
				c-0.054,0.157-0.104,0.316-0.154,0.475c-0.015,0.026-0.047,0.109,0.007,0.117c0.12-0.008,0.239-0.028,0.359-0.036
				c0.054,0.02,0.098-0.027,0.075-0.073c-0.069-0.171-0.139-0.343-0.211-0.513C7.239,27.82,7.223,27.82,7.206,27.824z"/>
		</g>
	</g>
	<g>
		<path fill="#611818" d="M1.192,25.889c0.013,0.043,0.007,0.085,0.009,0.132C1.153,26.016,1.196,25.924,1.192,25.889z"/>
	</g>
	<g>
		<path fill="#010202" d="M14.828,26.144c0.017,0.061,0.004,0.125,0.009,0.188h-0.014C14.823,26.268,14.817,26.206,14.828,26.144z"
			/>
		<path fill="#010202" d="M13.021,28.205h0.014c-0.002,0.062,0.006,0.127-0.005,0.189C13.013,28.332,13.023,28.267,13.021,28.205z"
			/>
	</g>
	<g>
		<path fill="#010202" d="M13.281,26.346c-0.01-0.027-0.019-0.082,0.008-0.096c0,0.023,0,0.071,0,0.095L13.281,26.346z"/>
		<path fill="#010202" d="M11.112,27.212c0.01,0.03,0.012,0.063,0.007,0.1h-0.007C11.095,27.282,11.097,27.241,11.112,27.212z"/>
		<path fill="#010202" d="M11.126,27.609c0.01,0.03,0.012,0.063,0.007,0.1h-0.007C11.109,27.68,11.111,27.639,11.126,27.609z"/>
	</g>
	<g>
		<path fill="#010202" d="M13.281,26.346l0.009-0.001c0,0.062,0,0.123,0,0.187h-0.014C13.278,26.468,13.268,26.406,13.281,26.346z"
			/>
		<path fill="#010202" d="M13.338,27.804c0.017,0.062,0.004,0.125,0.009,0.189h-0.014C13.333,27.929,13.327,27.866,13.338,27.804z"
			/>
	</g>
	<g>
		<path fill="#010202" d="M17.003,26.369c0.053-0.016,0.109-0.009,0.165,0.001C17.112,26.372,17.058,26.38,17.003,26.369z"/>
	</g>
	<g>
		<path fill="#010202" d="M12.936,26.417h0.014c-0.002,0.062,0.006,0.127-0.005,0.189C12.928,26.545,12.938,26.479,12.936,26.417z"
			/>
		<path fill="#010202" d="M17.493,26.532c0.023-0.001,0.071-0.001,0.095-0.001C17.577,26.558,17.504,26.557,17.493,26.532z"/>
		<path fill="#010202" d="M13.986,28.135H14c-0.003,0.061,0.006,0.126-0.005,0.188C13.978,28.262,13.988,28.195,13.986,28.135z"/>
	</g>
	<g>
		<path fill="#010202" d="M11.078,26.503h0.014c-0.001,0.065-0.001,0.131,0,0.198h-0.014C11.076,26.634,11.075,26.568,11.078,26.503
			z"/>
		<path fill="#010202" d="M13.353,28.173c0.016,0.061,0.004,0.125,0.008,0.188h-0.014C13.347,28.297,13.341,28.234,13.353,28.173z"
			/>
	</g>
	<g>
		<path fill="#010202" d="M9.771,26.573c0.089,0,0.179-0.002,0.269,0.001l0,0.014c-0.09-0.001-0.18,0-0.27-0.001V26.573z"/>
	</g>
	<g>
		<path fill="#010202" d="M12.95,26.701c0.031,0.013,0.007,0.079,0.013,0.113H12.95C12.949,26.776,12.949,26.738,12.95,26.701z"/>
	</g>
	<g>
		<path fill="#010202" d="M13.296,26.711c0.016,0.062,0.004,0.125,0.009,0.189h-0.014C13.291,26.836,13.284,26.773,13.296,26.711z"
			/>
		<path fill="#010202" d="M13.035,28.489h0.014c-0.002,0.062,0.006,0.126-0.005,0.188C13.026,28.616,13.038,28.55,13.035,28.489z"/>
	</g>
	<g>
		<path fill="#010202" d="M11.098,26.814c0.01,0.03,0.012,0.063,0.007,0.1h-0.007C11.081,26.885,11.083,26.844,11.098,26.814z"/>
		<path fill="#010202" d="M11.139,28.003c0.011,0.038,0.006,0.074,0.009,0.117h-0.014C11.132,28.081,11.132,28.041,11.139,28.003z"
			/>
		<path fill="#010202" d="M11.155,28.418c0.01,0.03,0.012,0.063,0.007,0.1h-0.007C11.138,28.488,11.14,28.447,11.155,28.418z"/>
	</g>
	<g>
		<path fill="#010202" d="M11.099,26.914h0.007c0,0.024,0,0.074-0.001,0.1h-0.006C11.083,26.983,11.083,26.943,11.099,26.914z"/>
		<path fill="#010202" d="M11.155,28.518h0.007c0,0.025,0,0.074,0,0.099h-0.006C11.141,28.587,11.14,28.547,11.155,28.518z"/>
	</g>
	<g>
		<path fill="#010202" d="M15.831,26.972l0.014-0.001c0,0.09-0.001,0.179,0,0.27h-0.014C15.83,27.149,15.828,27.061,15.831,26.972z"
			/>
	</g>
	<g>
		<path fill="#010202" d="M13.31,26.98c0.017,0.062,0.003,0.126,0.008,0.19H13.31C13.3,27.107,13.301,27.043,13.31,26.98z"/>
	</g>
	<g>
		<path fill="#010202" d="M11.098,27.014h0.006c0,0.024,0,0.072,0,0.097C11.076,27.096,11.085,27.039,11.098,27.014z"/>
		<path fill="#010202" d="M11.773,28.009c0.026,0.015,0.018,0.069,0.008,0.096h-0.009C11.772,28.08,11.772,28.033,11.773,28.009z"/>
		<path fill="#010202" d="M11.155,28.616h0.006c0,0.024,0,0.073,0,0.098C11.133,28.699,11.143,28.643,11.155,28.616z"/>
	</g>
	<g>
		<path fill="#010202" d="M11.738,27.131c-0.007-0.037-0.027-0.092,0.002-0.121C11.745,27.05,11.746,27.091,11.738,27.131z"/>
	</g>
	<g>
		<path fill="#010202" d="M19.599,27.216c-0.016-0.062-0.016-0.132,0.004-0.19C19.601,27.087,19.611,27.153,19.599,27.216z"/>
		<path fill="#010202" d="M15.546,28.233h0.014c0.002,0.058,0.001,0.116-0.005,0.175C15.545,28.351,15.546,28.29,15.546,28.233z"/>
		<path fill="#010202" d="M10.793,28.473l0.009,0.001c0.008,0.06,0.005,0.123,0.004,0.186l-0.013,0.001
			C10.793,28.597,10.792,28.534,10.793,28.473z"/>
	</g>
	<g>
		<path fill="#010202" d="M13.31,27.171h0.009c0,0.024,0,0.071,0,0.096C13.291,27.252,13.3,27.197,13.31,27.171z"/>
		<path fill="#010202" d="M11.113,27.41h0.006c0,0.024,0,0.073,0,0.098C11.09,27.493,11.1,27.437,11.113,27.41z"/>
		<path fill="#010202" d="M10.78,27.967c0.026,0.014,0.018,0.068,0.008,0.096l-0.009-0.001C10.78,28.038,10.78,27.99,10.78,27.967z"
			/>
		<path fill="#010202" d="M10.794,28.378c0.026,0.015,0.018,0.068,0.008,0.096l-0.009-0.001
			C10.793,28.449,10.794,28.401,10.794,28.378z"/>
	</g>
	<g>
		<path fill="#010202" d="M11.745,27.229c0.028,0.015,0.017,0.07,0.007,0.098C11.734,27.296,11.731,27.264,11.745,27.229z"/>
		<path fill="#010202" d="M11.127,27.808h0.006c0,0.024,0,0.073,0,0.098C11.104,27.891,11.114,27.834,11.127,27.808z"/>
	</g>
	<g>
		<path fill="#010202" d="M12.85,27.27c0.045-0.004,0.006,0.098,0.01,0.131C12.848,27.358,12.849,27.311,12.85,27.27z"/>
	</g>
	<g>
		<path fill="#010202" d="M11.113,27.312h0.007c0,0.024,0,0.074-0.001,0.099h-0.006C11.098,27.381,11.098,27.341,11.113,27.312z"/>
	</g>
	<g>
		<path fill="#010202" d="M13.324,27.35c0.017,0.061,0.004,0.125,0.009,0.188h-0.014C13.319,27.475,13.313,27.412,13.324,27.35z"/>
	</g>
	<g>
		<path fill="#010202" d="M13.957,27.512c0.007-0.042-0.014-0.098,0.012-0.133c-0.001,0.041,0.009,0.09-0.002,0.132L13.957,27.512z"
			/>
	</g>
	<g>
		<path fill="#010202" d="M12.865,27.496h0.014c-0.002,0.062,0.005,0.126-0.005,0.188C12.856,27.623,12.868,27.557,12.865,27.496z"
			/>
		<path fill="#010202" d="M11.134,28.12h0.014c0,0.062-0.001,0.122-0.001,0.185h-0.014C11.132,28.241,11.131,28.182,11.134,28.12z"
			/>
	</g>
	<g>
		<path fill="#010202" d="M13.957,27.512l0.01-0.001c0.015,0.029,0.011,0.068-0.002,0.099C13.952,27.576,13.95,27.544,13.957,27.512
			z"/>
		<path fill="#010202" d="M10.764,27.768l0.009-0.001c0.015,0.028,0.012,0.068-0.002,0.098
			C10.76,27.832,10.757,27.799,10.764,27.768z"/>
	</g>
	<g>
		<path fill="#010202" d="M10.765,27.595l0.014,0.001c0.004,0.057,0.002,0.113-0.005,0.171l-0.009,0.001
			C10.764,27.709,10.764,27.651,10.765,27.595z"/>
	</g>
	<g>
		<path fill="#010202" d="M9.701,27.836c0.003-0.035,0.011-0.105,0.014-0.141c0,0.047-0.002,0.091,0,0.141H9.701z"/>
	</g>
	<g>
		<path fill="#010202" d="M11.127,27.709h0.007c0,0.024,0,0.074-0.001,0.099h-0.006C11.112,27.778,11.112,27.738,11.127,27.709z"/>
		<path fill="#010202" d="M10.779,28.062l0.009,0.001c0.008,0.037,0.008,0.077,0,0.115l-0.009,0.001
			C10.778,28.139,10.778,28.1,10.779,28.062z"/>
		<path fill="#010202" d="M14,28.489c0.043-0.002,0.003,0.094,0.013,0.127H14C14,28.574,13.997,28.528,14,28.489z"/>
	</g>
	<g>
		<path fill="#010202" d="M13.972,27.779h0.014c0.002,0.058,0,0.116-0.005,0.175C13.97,27.896,13.971,27.836,13.972,27.779z"/>
	</g>
	<g>
		<path fill="#010202" d="M19.633,27.867c0.026,0.011,0.026,0.083,0.001,0.095C19.634,27.938,19.633,27.891,19.633,27.867z"/>
	</g>
	<g>
		<path fill="#010202" d="M9.72,27.945c0.016,0.062,0.004,0.125,0.009,0.189H9.715C9.715,28.07,9.708,28.008,9.72,27.945z"/>
	</g>
	<g>
		<path fill="#010202" d="M11.772,28.104h0.009c0.008,0.051,0.006,0.108,0.002,0.161C11.771,28.213,11.768,28.159,11.772,28.104z"/>
	</g>
	<g>
		<path fill="#010202" d="M10.172,28.159c0.011,0.051,0.015,0.104,0.011,0.159l-0.014,0.001
			C10.169,28.279,10.171,28.199,10.172,28.159z"/>
	</g>
	<g>
		<path fill="#010202" d="M10.779,28.179l0.009-0.001c0.015,0.029,0.011,0.068-0.002,0.098
			C10.774,28.243,10.771,28.211,10.779,28.179z"/>
	</g>
	<g>
		<path fill="#010202" d="M16.88,28.333c0.048,0,0.093-0.003,0.143,0l-0.001,0.014C16.987,28.344,16.917,28.337,16.88,28.333z"/>
	</g>
	<g>
		<path fill="#010202" d="M13.367,28.542c0.01,0.038,0.005,0.075,0.009,0.117C13.343,28.646,13.367,28.576,13.367,28.542z"/>
	</g>
	<g>
		<path fill="#010202" d="M11.167,28.812c0.009,0.038,0.005,0.074,0.01,0.117C11.143,28.918,11.168,28.845,11.167,28.812z"/>
	</g>
	<g>
		<path fill="#010202" d="M9.53,29.17c0.085,0,0.17,0,0.256,0.001v0.014c-0.086-0.001-0.17,0.002-0.255-0.001L9.53,29.17z"/>
	</g>
</g>
<g>
</g>
<g>
</g>
<g>
</g>
<g>
</g>
<g>
</g>
<g>
</g>
</svg>
